<?xml version="1.0" encoding="UTF-8"?>
<svg id="Layer_1" data-name="Layer 1" xmlns="http://www.w3.org/2000/svg" viewBox="0 0 1095.05 1024">
  <defs>
    <style>
      .cls-1 {
        fill: #070707;
      }
    </style>
  </defs>
  <g>
    <path class="cls-1" d="M117.24,838.22c0,18.95-8.79,34.32-34.6,34.32H23.34c-5.49,0-7.14-1.65-7.14-7.14v-182.04c0-5.49,1.65-7.14,7.14-7.14h58.21c25.81,0,34.32,15.38,34.32,34.32v28.83c0,12.63-5.49,29.1-22.79,32.95v.55c17.57,3.29,24.16,16.75,24.16,30.2v35.14ZM51.62,705.88v51.89h13.73c9.61,0,15.38-6.59,15.38-16.75v-24.99c0-5.49-4.39-10.16-9.34-10.16h-19.77ZM80.73,832.73v-28.28c0-10.16-5.77-16.75-15.38-16.75h-13.73v55.19h19.77c4.94,0,9.34-4.67,9.34-10.16Z"/>
    <path class="cls-1" d="M176.82,676.23c5.49,0,7.14,1.65,7.14,7.14v182.04c0,5.49-1.65,7.14-7.14,7.14h-21.14c-5.49,0-7.14-1.65-7.14-7.14v-182.04c0-5.49,1.65-7.14,7.14-7.14h21.14Z"/>
    <path class="cls-1" d="M254.8,784.96h-.27v80.45c0,5.49-1.65,7.14-7.14,7.14h-21.14c-5.49,0-7.14-1.65-7.14-7.14v-182.04c0-5.49,1.65-7.14,7.14-7.14h21.14c5.49,0,7.14,1.65,7.14,7.14v74.41h.27l32.67-74.96c2.2-5.22,4.12-6.59,9.88-6.59h22.24c5.22,0,6.31,1.65,4.12,6.59l-38.17,85.67,46.13,97.47c2.2,4.94,1.1,6.59-4.12,6.59h-26.08c-5.77,0-7.69-1.37-10.16-6.59l-36.52-81Z"/>
    <path class="cls-1" d="M438.76,865.41c0,5.49-1.65,7.14-7.14,7.14h-73.03c-5.49,0-7.14-1.65-7.14-7.14v-182.04c0-5.49,1.65-7.14,7.14-7.14h70.01c5.49,0,7.14,1.65,7.14,7.14v15.92c0,5.49-1.65,7.14-7.14,7.14h-41.73v51.34h26.91c5.49,0,7.14,1.65,7.14,7.14v17.02c0,5.49-1.65,7.14-7.14,7.14h-26.91v53.27h44.75c5.49,0,7.14,1.65,7.14,7.14v15.92Z"/>
    <path class="cls-1" d="M505.2,839.87v-130.97c0-18.12,7.96-32.67,32.12-32.67h36.79c23.89,0,31.85,14.55,31.85,32.67v20.32c0,5.77-1.37,7.41-6.86,8.51l-20.32,4.12c-5.22,1.1-6.86-.28-6.86-5.77v-29.65h-31.58v135.91h31.58v-34.6c0-5.49,1.65-6.86,7.14-5.77l19.77,3.84c5.77,1.1,7.14,2.75,7.14,8.51v25.53c0,18.12-7.96,32.67-31.85,32.67h-36.79c-24.16,0-32.12-14.55-32.12-32.67Z"/>
    <path class="cls-1" d="M670.77,757.78h36.52v-74.41c0-5.49,1.65-7.14,7.14-7.14h20.87c5.49,0,7.14,1.65,7.14,7.14v182.04c0,5.49-1.65,7.14-7.14,7.14h-20.87c-5.49,0-7.14-1.65-7.14-7.14v-77.7h-36.52v77.7c0,5.49-1.65,7.14-7.14,7.14h-21.14c-5.49,0-7.14-1.65-7.14-7.14v-182.04c0-5.49,1.65-7.14,7.14-7.14h21.14c5.49,0,7.14,1.65,7.14,7.14v74.41Z"/>
    <path class="cls-1" d="M851.16,872.55c-5.77,0-7.41-1.37-8.51-7.14l-6.04-32.67h-33.5l-6.04,32.67c-1.1,5.77-2.75,7.14-8.51,7.14h-19.77c-5.49,0-6.86-1.65-5.49-6.86l39.54-182.59c1.37-5.49,3.02-6.86,8.79-6.86h18.95c5.77,0,7.41,1.37,8.79,6.86l40.36,182.59c1.37,5.22,0,6.86-5.49,6.86h-23.06ZM823.98,761.35l-3.84-23.61h-.27l-3.84,23.61-7.14,41.46h22.24l-7.14-41.46Z"/>
    <path class="cls-1" d="M886.86,706.43c-5.49,0-7.14-1.65-7.14-7.14v-15.92c0-5.49,1.65-7.14,7.14-7.14h76.05c5.49,0,7.14,1.65,7.14,7.14v15.92c0,5.49-1.65,7.14-7.14,7.14h-20.59v158.97c0,5.49-1.65,7.14-7.14,7.14h-20.87c-5.49,0-7.14-1.65-7.14-7.14v-158.97h-20.32Z"/>
    <path class="cls-1" d="M984.33,706.43c-5.49,0-7.14-1.65-7.14-7.14v-15.92c0-5.49,1.65-7.14,7.14-7.14h76.05c5.49,0,7.14,1.65,7.14,7.14v15.92c0,5.49-1.65,7.14-7.14,7.14h-20.59v158.97c0,5.49-1.65,7.14-7.14,7.14h-20.87c-5.49,0-7.14-1.65-7.14-7.14v-158.97h-20.32Z"/>
  </g>
  <g>
    <circle class="cls-1" cx="516.24" cy="405.75" r="44.56"/>
    <path class="cls-1" d="M677.98,361.4c0,9.92-7.76,18.08-17.57,18.59h-2.01s0,0,0,0c-7.57-.39-14.08-5.25-16.6-12.38l-.02-.09c-.14-.44-.26-.9-.42-1.28-8.19-26.02-24.83-49.39-46.82-65.77-22.76-16.95-49.83-25.9-78.29-25.9-7.98,0-15.8.71-23.39,2.09-7.11,1.28-14.03,3.14-20.69,5.53l58.91,109.81c5.03,9.26,1.58,20.88-7.68,25.91-2.78,1.52-5.93,2.32-9.09,2.32-7.01,0-13.47-3.82-16.81-9.98l-59.07-110.03-17.75-33.04-74.99-139.68-.09-.16c-5.41-10.37-5-22.53,1.06-32.53,6.06-10,16.67-15.97,28.36-15.97h172.18c18.95,0,35.62,7.6,46.96,21.39,9.63,11.74,14.93,27.3,14.93,43.78s-5.08,31.46-14.35,43.08c-10.96,13.76-27,21.35-45.14,21.35h-12.74c-11.28,0-20.4-9.25-19.59-20.5.71-9.9,8.98-17.73,19.05-17.73h13.28c8.67,0,15.1-4.37,18.6-12.64,2.54-6.03,2.69-12.35,2.69-13.56,0-19.88-12.25-26.96-23.7-26.96h-151.08c-5.69,0-9.3,6.09-6.59,11.08l64.91,120.98c6.53-2.58,13.26-4.77,20.15-6.54,13.33-3.41,27.3-5.22,41.68-5.22,36.51,0,71.24,11.48,100.44,33.2,28.21,21.01,49.58,50.96,60.13,84.34l.13.39h0c.16.53.32,1.04.47,1.51.37,1.51.57,3.06.57,4.6Z"/>
    <path class="cls-1" d="M677.99,450.14c0,1.46-.17,2.92-.47,4.23h0c-.26.84-.52,1.68-.8,2.54-10.75,33.77-31.55,62.87-60.17,84.11-29.17,21.69-63.85,33.14-100.31,33.14-92.85,0-168.4-75.54-168.4-168.4,0-49.8,21.73-94.61,56.2-125.46l18.26,34.01c-23.03,23.64-37.24,55.92-37.24,91.45,0,72.33,58.86,131.18,131.18,131.18,28.54,0,55.67-9.01,78.48-26.05,22.04-16.47,38.66-39.92,46.77-66.01.07-.22.14-.44.21-.66l.06-.18c.03-.11.08-.23.16-.42l.1-.26c.09-.23.18-.48.3-.73.23-.54.5-1.07.82-1.64.12-.24.27-.46.42-.71l.12-.18c.67-1.03,1.4-1.97,2.21-2.83.22-.22.43-.44.66-.65.23-.22.47-.43.71-.64,1.72-1.46,3.65-2.6,5.75-3.36.93-.33,1.88-.6,2.87-.79.22-.05.44-.08.67-.12.74-.11,1.47-.17,2.12-.2h1.34c10.1.34,17.99,8.53,17.99,18.63Z"/>
  </g>
</svg>