<?xml version="1.0" encoding="UTF-8"?>
<svg id="Layer_1" data-name="Layer 1" xmlns="http://www.w3.org/2000/svg" viewBox="0 0 1024 1024">
  <defs>
    <style>
      .cls-1 {
        fill: #070707;
      }

      .cls-2 {
        fill: #fff;
      }
    </style>
  </defs>
  <rect class="cls-1" x="18.43" y="18.16" width="987.68" height="987.68" rx="51.57" ry="51.57"/>
  <g>
    <g>
      <path class="cls-2" d="M195.65,815.22c0,14.4-6.68,26.09-26.3,26.09h-45.08c-4.17,0-5.43-1.25-5.43-5.43v-138.38c0-4.17,1.25-5.43,5.43-5.43h44.25c19.62,0,26.09,11.69,26.09,26.09v21.92c0,9.6-4.17,22.12-17.32,25.05v.42c13.36,2.5,18.37,12.73,18.37,22.96v26.72ZM145.77,714.61v39.45h10.44c7.3,0,11.69-5.01,11.69-12.73v-18.99c0-4.17-3.34-7.72-7.1-7.72h-15.03ZM167.89,811.05v-21.5c0-7.72-4.38-12.73-11.69-12.73h-10.44v41.95h15.03c3.76,0,7.1-3.55,7.1-7.72Z"/>
      <path class="cls-2" d="M240.94,692.07c4.17,0,5.43,1.25,5.43,5.43v138.38c0,4.17-1.25,5.43-5.43,5.43h-16.07c-4.17,0-5.43-1.25-5.43-5.43v-138.38c0-4.17,1.25-5.43,5.43-5.43h16.07Z"/>
      <path class="cls-2" d="M300.22,774.73h-.21v61.16c0,4.17-1.25,5.43-5.43,5.43h-16.07c-4.17,0-5.43-1.25-5.43-5.43v-138.38c0-4.17,1.25-5.43,5.43-5.43h16.07c4.17,0,5.43,1.25,5.43,5.43v56.56h.21l24.84-56.98c1.67-3.97,3.13-5.01,7.51-5.01h16.91c3.97,0,4.8,1.25,3.13,5.01l-29.01,65.12,35.07,74.1c1.67,3.76.83,5.01-3.13,5.01h-19.83c-4.38,0-5.84-1.04-7.72-5.01l-27.76-61.57Z"/>
      <path class="cls-2" d="M440.06,835.88c0,4.17-1.25,5.43-5.43,5.43h-55.52c-4.17,0-5.43-1.25-5.43-5.43v-138.38c0-4.17,1.25-5.43,5.43-5.43h53.22c4.17,0,5.43,1.25,5.43,5.43v12.11c0,4.17-1.25,5.43-5.43,5.43h-31.73v39.03h20.46c4.17,0,5.43,1.25,5.43,5.43v12.94c0,4.17-1.25,5.43-5.43,5.43h-20.46v40.49h34.02c4.17,0,5.43,1.25,5.43,5.43v12.11Z"/>
      <path class="cls-2" d="M490.56,816.47v-99.56c0-13.78,6.05-24.84,24.42-24.84h27.97c18.16,0,24.21,11.06,24.21,24.84v15.45c0,4.38-1.04,5.63-5.22,6.47l-15.45,3.13c-3.97.83-5.22-.21-5.22-4.38v-22.54h-24v103.32h24v-26.3c0-4.17,1.25-5.22,5.43-4.38l15.03,2.92c4.38.83,5.43,2.09,5.43,6.47v19.41c0,13.78-6.05,24.84-24.21,24.84h-27.97c-18.37,0-24.42-11.06-24.42-24.84Z"/>
      <path class="cls-2" d="M616.42,754.06h27.76v-56.56c0-4.17,1.25-5.43,5.43-5.43h15.86c4.17,0,5.43,1.25,5.43,5.43v138.38c0,4.17-1.25,5.43-5.43,5.43h-15.86c-4.17,0-5.43-1.25-5.43-5.43v-59.07h-27.76v59.07c0,4.17-1.25,5.43-5.43,5.43h-16.07c-4.17,0-5.43-1.25-5.43-5.43v-138.38c0-4.17,1.25-5.43,5.43-5.43h16.07c4.17,0,5.43,1.25,5.43,5.43v56.56Z"/>
      <path class="cls-2" d="M753.55,841.31c-4.38,0-5.64-1.04-6.47-5.43l-4.59-24.84h-25.46l-4.59,24.84c-.83,4.38-2.09,5.43-6.47,5.43h-15.03c-4.17,0-5.22-1.25-4.17-5.22l30.06-138.8c1.04-4.17,2.3-5.22,6.68-5.22h14.4c4.38,0,5.64,1.04,6.68,5.22l30.68,138.8c1.04,3.97,0,5.22-4.17,5.22h-17.53ZM732.88,756.78l-2.92-17.95h-.21l-2.92,17.95-5.43,31.52h16.91l-5.43-31.52Z"/>
      <path class="cls-2" d="M780.68,715.03c-4.17,0-5.43-1.25-5.43-5.43v-12.11c0-4.17,1.25-5.43,5.43-5.43h57.82c4.17,0,5.43,1.25,5.43,5.43v12.11c0,4.17-1.25,5.43-5.43,5.43h-15.65v120.85c0,4.17-1.25,5.43-5.43,5.43h-15.86c-4.17,0-5.43-1.25-5.43-5.43v-120.85h-15.45Z"/>
      <path class="cls-2" d="M854.78,715.03c-4.17,0-5.43-1.25-5.43-5.43v-12.11c0-4.17,1.25-5.43,5.43-5.43h57.82c4.17,0,5.43,1.25,5.43,5.43v12.11c0,4.17-1.25,5.43-5.43,5.43h-15.65v120.85c0,4.17-1.25,5.43-5.43,5.43h-15.86c-4.17,0-5.43-1.25-5.43-5.43v-120.85h-15.45Z"/>
    </g>
    <g>
      <circle class="cls-2" cx="498.95" cy="486.47" r="33.87"/>
      <path class="cls-2" d="M621.9,452.76c0,7.54-5.9,13.75-13.36,14.13h-1.53s0,0,0,0c-5.76-.3-10.71-3.99-12.62-9.41l-.02-.07c-.1-.34-.2-.68-.32-.98-6.22-19.78-18.87-37.54-35.59-50-17.3-12.88-37.88-19.69-59.51-19.69-6.07,0-12.01.54-17.78,1.59-5.41.98-10.66,2.39-15.73,4.21l44.78,83.47c3.82,7.04,1.2,15.88-5.83,19.7-2.12,1.16-4.51,1.76-6.91,1.76-5.33,0-10.24-2.9-12.78-7.58l-44.91-83.64-13.49-25.12-57.01-106.18-.07-.12c-4.11-7.88-3.8-17.12.8-24.73,4.61-7.6,12.67-12.14,21.56-12.14h130.88c14.41,0,27.08,5.78,35.7,16.26,7.32,8.93,11.35,20.75,11.35,33.28s-3.87,23.92-10.91,32.75c-8.33,10.46-20.52,16.23-34.31,16.23h-9.68c-8.58,0-15.51-7.03-14.89-15.58.54-7.53,6.83-13.48,14.48-13.48h10.1c6.59,0,11.48-3.32,14.14-9.61,1.93-4.58,2.04-9.39,2.04-10.31,0-15.11-9.31-20.5-18.02-20.5h-114.85c-4.32,0-7.07,4.63-5.01,8.43l49.34,91.97c4.96-1.96,10.08-3.63,15.32-4.97,10.13-2.59,20.75-3.97,31.68-3.97,27.75,0,54.15,8.72,76.35,25.24,21.45,15.97,37.69,38.74,45.71,64.11l.1.3h0c.12.4.24.79.35,1.15.28,1.15.43,2.32.43,3.5Z"/>
      <path class="cls-2" d="M621.91,520.21c0,1.11-.13,2.22-.36,3.21h0c-.2.64-.4,1.28-.61,1.93-8.18,25.67-23.98,47.79-45.74,63.94-22.17,16.48-48.54,25.19-76.25,25.19-70.58,0-128.01-57.42-128.01-128.01,0-37.85,16.52-71.92,42.72-95.37l13.88,25.86c-17.51,17.97-28.31,42.51-28.31,69.52,0,54.98,44.74,99.72,99.72,99.72,21.69,0,42.32-6.85,59.65-19.8,16.75-12.52,29.38-30.35,35.55-50.18.05-.16.11-.34.16-.5l.05-.14c.02-.09.06-.18.12-.32l.07-.19c.07-.18.14-.37.23-.55.18-.41.38-.82.62-1.24.09-.18.21-.35.32-.54l.09-.14c.51-.79,1.07-1.5,1.68-2.15.16-.17.32-.34.5-.49.18-.17.35-.33.54-.49,1.3-1.11,2.77-1.98,4.37-2.55.71-.25,1.43-.46,2.18-.6.16-.04.34-.06.51-.09.56-.09,1.12-.13,1.61-.15h1.02c7.68.26,13.67,6.48,13.67,14.16Z"/>
    </g>
  </g>
</svg>