<?xml version="1.0" encoding="UTF-8"?>
<svg id="Layer_1" data-name="Layer 1" xmlns="http://www.w3.org/2000/svg" viewBox="0 0 216 216">
  <defs>
    <style>
      .cls-1 {
        fill: #1b444f;
      }

      .cls-2 {
        fill: #fff;
      }

      .cls-3 {
        fill: #c4da4e;
      }
    </style>
  </defs>
  <rect class="cls-1" x="-.39" y=".01" width="216.39" height="216.39"/>
  <g>
    <g>
      <path class="cls-2" d="M44.75,169.69c0,2.82-1.31,5.11-5.15,5.11h-8.83c-.82,0-1.06-.24-1.06-1.06v-27.12c0-.82.24-1.06,1.06-1.06h8.67c3.84,0,5.11,2.29,5.11,5.11v4.3c0,1.88-.82,4.33-3.39,4.91v.08c2.62.49,3.6,2.49,3.6,4.5v5.24h0ZM34.98,149.98v7.73h2.05c1.43,0,2.29-.98,2.29-2.49v-3.72c0-.82-.65-1.51-1.39-1.51h-2.95ZM39.31,168.88v-4.21c0-1.51-.86-2.49-2.29-2.49h-2.05v8.22h2.95c.74,0,1.39-.7,1.39-1.51h0Z"/>
      <path class="cls-2" d="M53.63,145.56c.82,0,1.06.24,1.06,1.06v27.12c0,.82-.24,1.06-1.06,1.06h-3.15c-.82,0-1.06-.24-1.06-1.06v-27.12c0-.82.24-1.06,1.06-1.06h3.15,0Z"/>
      <path class="cls-2" d="M65.24,161.76h-.04v11.98c0,.82-.24,1.06-1.06,1.06h-3.15c-.82,0-1.06-.24-1.06-1.06v-27.12c0-.82.24-1.06,1.06-1.06h3.15c.82,0,1.06.24,1.06,1.06v11.08h.04l4.87-11.17c.33-.78.61-.98,1.47-.98h3.31c.78,0,.94.24.61.98l-5.68,12.76,6.87,14.52c.33.74.16.98-.61.98h-3.89c-.86,0-1.14-.2-1.51-.98l-5.44-12.06h0Z"/>
      <path class="cls-2" d="M92.64,173.74c0,.82-.24,1.06-1.06,1.06h-10.88c-.82,0-1.06-.24-1.06-1.06v-27.12c0-.82.24-1.06,1.06-1.06h10.43c.82,0,1.06.24,1.06,1.06v2.37c0,.82-.24,1.06-1.06,1.06h-6.22v7.65h4.01c.82,0,1.06.24,1.06,1.06v2.54c0,.82-.24,1.06-1.06,1.06h-4.01v7.93h6.67c.82,0,1.06.24,1.06,1.06v2.37h0Z"/>
      <path class="cls-2" d="M102.54,169.94v-19.51c0-2.7,1.19-4.87,4.79-4.87h5.48c3.56,0,4.74,2.17,4.74,4.87v3.03c0,.86-.2,1.1-1.02,1.27l-3.03.61c-.78.16-1.02-.04-1.02-.86v-4.42h-4.7v20.25h4.7v-5.15c0-.82.24-1.02,1.06-.86l2.95.57c.86.16,1.06.41,1.06,1.27v3.8c0,2.7-1.19,4.87-4.74,4.87h-5.48c-3.6,0-4.79-2.17-4.79-4.87h0Z"/>
      <path class="cls-2" d="M127.2,157.71h5.44v-11.08c0-.82.24-1.06,1.06-1.06h3.11c.82,0,1.06.24,1.06,1.06v27.12c0,.82-.24,1.06-1.06,1.06h-3.11c-.82,0-1.06-.24-1.06-1.06v-11.57h-5.44v11.57c0,.82-.24,1.06-1.06,1.06h-3.15c-.82,0-1.06-.24-1.06-1.06v-27.12c0-.82.24-1.06,1.06-1.06h3.15c.82,0,1.06.24,1.06,1.06v11.08Z"/>
      <path class="cls-2" d="M154.07,174.8c-.86,0-1.1-.2-1.27-1.06l-.9-4.87h-4.99l-.9,4.87c-.16.86-.41,1.06-1.27,1.06h-2.95c-.82,0-1.02-.24-.82-1.02l5.89-27.2c.2-.82.45-1.02,1.31-1.02h2.82c.86,0,1.11.2,1.31,1.02l6.01,27.2c.2.78,0,1.02-.82,1.02h-3.44ZM150.02,158.24l-.57-3.52h-.04l-.57,3.52-1.06,6.18h3.31l-1.06-6.18Z"/>
      <path class="cls-2" d="M159.39,150.06c-.82,0-1.06-.24-1.06-1.06v-2.37c0-.82.24-1.06,1.06-1.06h11.33c.82,0,1.06.24,1.06,1.06v2.37c0,.82-.24,1.06-1.06,1.06h-3.07v23.68c0,.82-.24,1.06-1.06,1.06h-3.11c-.82,0-1.06-.24-1.06-1.06v-23.68h-3.03Z"/>
      <path class="cls-2" d="M173.91,150.06c-.82,0-1.06-.24-1.06-1.06v-2.37c0-.82.24-1.06,1.06-1.06h11.33c.82,0,1.06.24,1.06,1.06v2.37c0,.82-.24,1.06-1.06,1.06h-3.07v23.68c0,.82-.24,1.06-1.06,1.06h-3.11c-.82,0-1.06-.24-1.06-1.06v-23.68h-3.03Z"/>
    </g>
    <g>
      <path class="cls-3" d="M136.06,88.23c.04,3.61-5.18,4.48-6.33,1.09-4.07-15.06-22.2-18.6-29.68-14.95l7.42,13.83c10.44-.19,10.73,15.39.29,15.59-6.29.2-10.11-7.66-6.22-12.49-6.19-11.48-17.34-32.33-23.62-43.99-.96-1.82-.9-3.96.17-5.72,1.06-1.75,2.92-2.79,4.96-2.79h30.13c9.69-.33,13.95,12.07,8.32,18.94-2.33,3.14-6.33,4.02-10.13,3.74-4.46-.04-4.54-6.58-.09-6.69,0,0,2.32,0,2.32,0,2.5.23,3.86-2.82,3.72-4.59,0-3.48-2.14-4.72-4.15-4.72h-26.44c-.99,0-1.63,1.07-1.15,1.94l11.36,21.17c16.49-6.57,35.05,3.08,39.12,19.65h0Z"/>
      <path class="cls-3" d="M136.06,103.76c0,.26-.03.51-.08.74h0c-3.52,12.2-15.48,21.14-28.22,20.96-26.43.92-39.64-34.82-19.63-51.42l3.19,5.95c-19.3,20.03,7.59,50.96,30.17,34.4,3.93-2.93,6.84-7.12,8.26-11.77.17-.46.46-.89.81-1.22,1.96-1.97,5.6-.43,5.5,2.37h0Z"/>
    </g>
  </g>
</svg>