<?xml version="1.0" encoding="UTF-8"?>
<svg id="Layer_1" data-name="Layer 1" xmlns="http://www.w3.org/2000/svg" viewBox="0 0 1000 1000">
  <defs>
    <style>
      .cls-1 {
        fill: #1a434e;
      }

      .cls-2 {
        fill: #c3f44d;
      }
    </style>
  </defs>
  <rect class="cls-2" x="8.22" y="8.22" width="983.55" height="983.55" rx="77.83" ry="77.83"/>
  <g>
    <circle class="cls-1" cx="507.85" cy="597.93" r="55.06"/>
    <path class="cls-1" d="M707.71,543.13c0,12.26-9.59,22.35-21.71,22.97h-2.49s0,0,0,0c-9.35-.49-17.4-6.48-20.51-15.3l-.03-.11c-.17-.55-.33-1.11-.52-1.59-10.12-32.16-30.68-61.03-57.85-81.27-28.12-20.94-61.57-32.01-96.74-32.01-9.86,0-19.52.88-28.91,2.59-8.79,1.59-17.33,3.88-25.57,6.84l72.79,135.69c6.21,11.44,1.95,25.81-9.48,32.02-3.44,1.88-7.33,2.86-11.24,2.86-8.66,0-16.64-4.72-20.77-12.33l-73-135.96-21.93-40.83-92.67-172.6-.11-.2c-6.68-12.81-6.18-27.84,1.31-40.19,7.49-12.36,20.59-19.73,35.04-19.73h212.76c23.42,0,44.02,9.39,58.03,26.43,11.9,14.51,18.45,33.73,18.45,54.1s-6.28,38.88-17.73,53.24c-13.55,17.01-33.36,26.38-55.77,26.38h-15.74c-13.94,0-25.21-11.43-24.21-25.33.87-12.24,11.1-21.91,23.54-21.91h16.41c10.71,0,18.66-5.4,22.98-15.62,3.14-7.45,3.32-15.26,3.32-16.76,0-24.57-15.13-33.32-29.28-33.32h-186.68c-7.03,0-11.5,7.52-8.15,13.7l80.2,149.49c8.07-3.19,16.38-5.9,24.9-8.08,16.47-4.21,33.73-6.45,51.5-6.45,45.11,0,88.03,14.18,124.11,41.03,34.86,25.96,61.26,62.97,74.3,104.21l.16.49h0c.2.65.4,1.29.57,1.86.46,1.86.7,3.78.7,5.69Z"/>
    <path class="cls-1" d="M707.72,652.77c0,1.8-.21,3.61-.58,5.22h0c-.33,1.04-.64,2.08-.99,3.14-13.29,41.73-38.99,77.68-74.34,103.93-36.04,26.8-78.9,40.95-123.95,40.95-114.74,0-208.09-93.34-208.09-208.09,0-61.53,26.85-116.91,69.44-155.03l22.56,42.03c-28.46,29.21-46.01,69.1-46.01,113,0,89.38,72.73,162.1,162.1,162.1,35.26,0,68.79-11.14,96.97-32.19,27.23-20.35,47.77-49.33,57.79-81.57.09-.27.18-.55.26-.81l.08-.23c.04-.14.1-.29.2-.52l.12-.32c.11-.29.23-.59.37-.9.29-.66.61-1.33,1.01-2.02.15-.3.34-.57.52-.88l.15-.23c.82-1.28,1.73-2.44,2.74-3.5.27-.28.53-.54.81-.8.29-.28.57-.53.88-.79,2.12-1.8,4.51-3.21,7.11-4.15,1.15-.41,2.33-.74,3.55-.97.27-.06.55-.1.83-.15.91-.14,1.81-.21,2.62-.25h1.65c12.48.42,22.23,10.53,22.23,23.02Z"/>
  </g>
</svg>