<?xml version="1.0" encoding="UTF-8"?>
<svg id="Layer_1" xmlns="http://www.w3.org/2000/svg" version="1.1" viewBox="0 0 216 216">
  <!-- Generator: Adobe Illustrator 30.1.0, SVG Export Plug-In . SVG Version: 2.1.1 Build 136)  -->
  <defs>
    <style>
      .st0 {
        fill: none;
      }

      .st1, .st2 {
        fill: #1a434e;
      }

      .st3 {
        fill: #c3f44d;
      }

      .st4 {
        fill: #dee0e0;
      }

      .st5, .st6, .st2 {
        isolation: isolate;
      }

      .st7, .st6 {
        fill: #fff;
      }

      .st6 {
        font-family: PosterGothicRoundExCondATF, 'Poster Gothic Round ExCond ATF';
        font-size: 121.57px;
      }
    </style>
  </defs>
  <rect class="st7" x="-3723.1" y="-613.46" width="1147" height="1147"/>
  <path class="st1" d="M-3351.1-535.96v15.5h-31v-15.5c0-8.56,6.94-15.5,15.5-15.5s15.5,6.94,15.5,15.5Z"/>
  <path class="st1" d="M-3304.6-551.46h15.5v31h-15.5c-8.56,0-15.5-6.94-15.5-15.5s6.94-15.5,15.5-15.5Z"/>
  <path class="st1" d="M-3273.6-520.46h-15.5v-31h15.5c8.56,0,15.5,6.94,15.5,15.5s-6.94,15.5-15.5,15.5Z"/>
  <path class="st1" d="M-3211.6-551.46c8.56,0,15.5,6.94,15.5,15.5s-6.94,15.5-15.5,15.5-15.5-6.94-15.5-15.5,6.94-15.5,15.5-15.5Z"/>
  <path class="st1" d="M-3041.1-535.96v15.5h-31v-15.5c0-8.56,6.94-15.5,15.5-15.5s15.5,6.94,15.5,15.5Z"/>
  <path class="st1" d="M-2963.6-551.46c8.56,0,15.5,6.94,15.5,15.5s-6.94,15.5-15.5,15.5-15.5-6.94-15.5-15.5,6.94-15.5,15.5-15.5Z"/>
  <path class="st1" d="M-2901.6-551.46c8.56,0,15.5,6.94,15.5,15.5s-6.94,15.5-15.5,15.5-15.5-6.94-15.5-15.5,6.94-15.5,15.5-15.5Z"/>
  <path class="st1" d="M-3413.1-489.46h31v-31c-17.12,0-31,13.88-31,31h0Z"/>
  <path class="st1" d="M-3351.1-520.46h-31v31c17.12,0,31-13.88,31-31Z"/>
  <path class="st1" d="M-3227.1-504.96v15.5h-31v-15.5c0-8.56,6.94-15.5,15.5-15.5s15.5,6.94,15.5,15.5h0Z"/>
  <path class="st1" d="M-3134.1-504.96v15.5h-31v-15.5c0-8.56,6.94-15.5,15.5-15.5s15.5,6.94,15.5,15.5h0Z"/>
  <path class="st1" d="M-3087.6-520.46h15.5v31h-15.5c-8.56,0-15.5-6.94-15.5-15.5s6.94-15.5,15.5-15.5Z"/>
  <rect class="st1" x="-3072.1" y="-520.46" width="31" height="31"/>
  <path class="st1" d="M-2979.1-504.96v15.5h-31v-15.5c0-8.56,6.94-15.5,15.5-15.5s15.5,6.94,15.5,15.5h0Z"/>
  <rect class="st1" x="-3413.1" y="-489.46" width="31" height="31"/>
  <path class="st1" d="M-3273.6-489.46h15.5v31h-15.5c-8.56,0-15.5-6.94-15.5-15.5s6.94-15.5,15.5-15.5Z"/>
  <path class="st1" d="M-3227.1-489.46h-31v31c17.12,0,31-13.88,31-31Z"/>
  <path class="st1" d="M-3180.6-489.46h15.5v31h-15.5c-8.56,0-15.5-6.94-15.5-15.5s6.94-15.5,15.5-15.5Z"/>
  <rect class="st1" x="-3165.1" y="-489.46" width="31" height="31"/>
  <path class="st1" d="M-3118.6-458.46h-15.5v-31h15.5c8.56,0,15.5,6.94,15.5,15.5s-6.94,15.5-15.5,15.5Z"/>
  <path class="st1" d="M-3072.1-473.96v-15.5h31v15.5c0,8.56-6.94,15.5-15.5,15.5s-15.5-6.94-15.5-15.5Z"/>
  <rect class="st1" x="-3010.1" y="-489.46" width="31" height="31"/>
  <path class="st1" d="M-2886.1-473.96v15.5h-31v-15.5c0-8.56,6.94-15.5,15.5-15.5s15.5,6.94,15.5,15.5Z"/>
  <rect class="st1" x="-3413.1" y="-458.46" width="31" height="31"/>
  <path class="st1" d="M-3335.6-458.46c8.56,0,15.5,6.94,15.5,15.5s-6.94,15.5-15.5,15.5-15.5-6.94-15.5-15.5,6.94-15.5,15.5-15.5Z"/>
  <rect class="st1" x="-3165.1" y="-458.46" width="31" height="31"/>
  <path class="st1" d="M-3087.6-458.46c8.56,0,15.5,6.94,15.5,15.5s-6.94,15.5-15.5,15.5-15.5-6.94-15.5-15.5,6.94-15.5,15.5-15.5Z"/>
  <path class="st1" d="M-2979.1-427.46v-31h-31c0,17.12,13.88,31,31,31Z"/>
  <rect class="st1" x="-2979.1" y="-458.46" width="31" height="31"/>
  <rect class="st1" x="-2948.1" y="-458.46" width="31" height="31"/>
  <rect class="st1" x="-2917.1" y="-458.46" width="31" height="31"/>
  <rect class="st1" x="-3413.1" y="-427.46" width="31" height="31"/>
  <path class="st1" d="M-3227.1-411.96v15.5h-31v-15.5c0-8.56,6.94-15.5,15.5-15.5s15.5,6.94,15.5,15.5Z"/>
  <rect class="st1" x="-3165.1" y="-427.46" width="31" height="31"/>
  <path class="st1" d="M-3025.6-427.46c8.56,0,15.5,6.94,15.5,15.5s-6.94,15.5-15.5,15.5-15.5-6.94-15.5-15.5,6.94-15.5,15.5-15.5Z"/>
  <rect class="st1" x="-2979.1" y="-427.46" width="31" height="31"/>
  <rect class="st1" x="-2948.1" y="-427.46" width="31" height="31"/>
  <rect class="st1" x="-2917.1" y="-427.46" width="31" height="31"/>
  <rect class="st1" x="-3413.1" y="-396.46" width="31" height="31"/>
  <path class="st1" d="M-3258.1-380.96v-15.5h31v15.5c0,8.56-6.94,15.5-15.5,15.5s-15.5-6.94-15.5-15.5Z"/>
  <path class="st1" d="M-3180.6-396.46h15.5v31h-15.5c-8.56,0-15.5-6.94-15.5-15.5s6.94-15.5,15.5-15.5Z"/>
  <rect class="st1" x="-3165.1" y="-396.46" width="31" height="31"/>
  <rect class="st1" x="-3134.1" y="-396.46" width="31" height="31"/>
  <rect class="st1" x="-3103.1" y="-396.46" width="31" height="31"/>
  <path class="st1" d="M-3056.6-365.46h-15.5v-31h15.5c8.56,0,15.5,6.94,15.5,15.5s-6.94,15.5-15.5,15.5Z"/>
  <path class="st1" d="M-2994.6-396.46h15.5v31h-15.5c-8.56,0-15.5-6.94-15.5-15.5s6.94-15.5,15.5-15.5Z"/>
  <rect class="st1" x="-2979.1" y="-396.46" width="31" height="31"/>
  <rect class="st1" x="-2917.1" y="-396.46" width="31" height="31"/>
  <path class="st1" d="M-3413.1-349.96v-15.5h31v15.5c0,8.56-6.94,15.5-15.5,15.5s-15.5-6.94-15.5-15.5Z"/>
  <path class="st1" d="M-3320.1-349.96v15.5h-31v-15.5c0-8.56,6.94-15.5,15.5-15.5s15.5,6.94,15.5,15.5Z"/>
  <path class="st1" d="M-3258.1-349.96v15.5h-31v-15.5c0-8.56,6.94-15.5,15.5-15.5s15.5,6.94,15.5,15.5Z"/>
  <path class="st1" d="M-3196.1-349.96v15.5h-31v-15.5c0-8.56,6.94-15.5,15.5-15.5s15.5,6.94,15.5,15.5Z"/>
  <path class="st1" d="M-3165.1-349.96v-15.5h31v15.5c0,8.56-6.94,15.5-15.5,15.5s-15.5-6.94-15.5-15.5Z"/>
  <path class="st1" d="M-3103.1-349.96v-15.5h31v15.5c0,8.56-6.94,15.5-15.5,15.5s-15.5-6.94-15.5-15.5Z"/>
  <path class="st1" d="M-3025.6-365.46c8.56,0,15.5,6.94,15.5,15.5s-6.94,15.5-15.5,15.5-15.5-6.94-15.5-15.5,6.94-15.5,15.5-15.5Z"/>
  <rect class="st1" x="-2979.1" y="-365.46" width="31" height="31"/>
  <path class="st1" d="M-2917.1-349.96v-15.5h31v15.5c0,8.56-6.94,15.5-15.5,15.5s-15.5-6.94-15.5-15.5Z"/>
  <path class="st1" d="M-3366.6-334.46h15.5v31h-15.5c-8.56,0-15.5-6.94-15.5-15.5s6.94-15.5,15.5-15.5Z"/>
  <path class="st1" d="M-3320.1-334.46h-31v31c17.12,0,31-13.88,31-31Z"/>
  <rect class="st1" x="-3289.1" y="-334.46" width="31" height="31"/>
  <rect class="st1" x="-3258.1" y="-334.46" width="31" height="31"/>
  <path class="st1" d="M-3196.1-334.46h-31v31c17.12,0,31-13.88,31-31Z"/>
  <path class="st1" d="M-3118.6-334.46c8.56,0,15.5,6.94,15.5,15.5s-6.94,15.5-15.5,15.5-15.5-6.94-15.5-15.5,6.94-15.5,15.5-15.5Z"/>
  <path class="st1" d="M-3056.6-334.46c8.56,0,15.5,6.94,15.5,15.5s-6.94,15.5-15.5,15.5-15.5-6.94-15.5-15.5,6.94-15.5,15.5-15.5Z"/>
  <path class="st1" d="M-2979.1-318.96v-15.5h31v15.5c0,8.56-6.94,15.5-15.5,15.5s-15.5-6.94-15.5-15.5Z"/>
  <path class="st1" d="M-3568.1-287.96v15.5h-31v-15.5c0-8.56,6.94-15.5,15.5-15.5s15.5,6.94,15.5,15.5Z"/>
  <path class="st1" d="M-3506.1-272.46h31v-31c-17.12,0-31,13.88-31,31Z"/>
  <rect class="st1" x="-3475.1" y="-303.46" width="31" height="31"/>
  <rect class="st1" x="-3444.1" y="-303.46" width="31" height="31"/>
  <path class="st1" d="M-3397.6-272.46h-15.5v-31h15.5c8.56,0,15.5,6.94,15.5,15.5s-6.94,15.5-15.5,15.5Z"/>
  <path class="st1" d="M-3258.1-272.46v-31h-31c0,17.12,13.88,31,31,31Z"/>
  <rect class="st1" x="-3258.1" y="-303.46" width="31" height="31"/>
  <path class="st1" d="M-2948.1-272.46h31v-31c-17.12,0-31,13.88-31,31Z"/>
  <rect class="st1" x="-2917.1" y="-303.46" width="31" height="31"/>
  <path class="st1" d="M-2886.1-303.46v31h31c0-17.12-13.88-31-31-31Z"/>
  <path class="st1" d="M-2824.1-272.46h31v-31c-17.12,0-31,13.88-31,31Z"/>
  <rect class="st1" x="-2793.1" y="-303.46" width="31" height="31"/>
  <rect class="st1" x="-2762.1" y="-303.46" width="31" height="31"/>
  <rect class="st1" x="-2731.1" y="-303.46" width="31" height="31"/>
  <path class="st1" d="M-2700.1-303.46v31h31c0-17.12-13.88-31-31-31Z"/>
  <path class="st1" d="M-3645.6-272.46c8.56,0,15.5,6.94,15.5,15.5s-6.94,15.5-15.5,15.5-15.5-6.94-15.5-15.5,6.94-15.5,15.5-15.5Z"/>
  <rect class="st1" x="-3599.1" y="-272.46" width="31" height="31"/>
  <path class="st1" d="M-3537.1-241.46h31v-31c-17.12,0-31,13.88-31,31h0Z"/>
  <rect class="st1" x="-3506.1" y="-272.46" width="31" height="31"/>
  <path class="st1" d="M-3335.6-272.46h15.5v31h-15.5c-8.56,0-15.5-6.94-15.5-15.5s6.94-15.5,15.5-15.5Z"/>
  <path class="st1" d="M-3304.6-241.46h-15.5v-31h15.5c8.56,0,15.5,6.94,15.5,15.5s-6.94,15.5-15.5,15.5h0Z"/>
  <path class="st1" d="M-3227.1-241.46v-31h-31c0,17.12,13.88,31,31,31h0Z"/>
  <rect class="st1" x="-3227.1" y="-272.46" width="31" height="31"/>
  <path class="st1" d="M-3180.6-241.46h-15.5v-31h15.5c8.56,0,15.5,6.94,15.5,15.5s-6.94,15.5-15.5,15.5h0Z"/>
  <path class="st1" d="M-3041.1-241.46h31v-31c-17.12,0-31,13.88-31,31h0Z"/>
  <path class="st1" d="M-2994.6-241.46h-15.5v-31h15.5c8.56,0,15.5,6.94,15.5,15.5s-6.94,15.5-15.5,15.5h0Z"/>
  <rect class="st1" x="-2948.1" y="-272.46" width="31" height="31"/>
  <rect class="st1" x="-2917.1" y="-272.46" width="31" height="31"/>
  <rect class="st1" x="-2886.1" y="-272.46" width="31" height="31"/>
  <rect class="st1" x="-2855.1" y="-272.46" width="31" height="31"/>
  <rect class="st1" x="-2824.1" y="-272.46" width="31" height="31"/>
  <rect class="st1" x="-2731.1" y="-272.46" width="31" height="31"/>
  <rect class="st1" x="-2700.1" y="-272.46" width="31" height="31"/>
  <path class="st1" d="M-2669.1-272.46v31h31c0-17.12-13.88-31-31-31Z"/>
  <path class="st1" d="M-3568.1-210.46v-31h-31c0,17.12,13.88,31,31,31Z"/>
  <rect class="st1" x="-3568.1" y="-241.46" width="31" height="31"/>
  <rect class="st1" x="-3537.1" y="-241.46" width="31" height="31"/>
  <rect class="st1" x="-3506.1" y="-241.46" width="31" height="31"/>
  <path class="st1" d="M-3459.6-210.46h-15.5v-31h15.5c8.56,0,15.5,6.94,15.5,15.5s-6.94,15.5-15.5,15.5Z"/>
  <path class="st1" d="M-3351.1-225.96v15.5h-31v-15.5c0-8.56,6.94-15.5,15.5-15.5s15.5,6.94,15.5,15.5Z"/>
  <path class="st1" d="M-3273.6-241.46c8.56,0,15.5,6.94,15.5,15.5s-6.94,15.5-15.5,15.5-15.5-6.94-15.5-15.5,6.94-15.5,15.5-15.5Z"/>
  <path class="st1" d="M-3103.1-225.96v15.5h-31v-15.5c0-8.56,6.94-15.5,15.5-15.5s15.5,6.94,15.5,15.5Z"/>
  <path class="st1" d="M-3072.1-210.46h31v-31c-17.12,0-31,13.88-31,31Z"/>
  <path class="st1" d="M-3010.1-241.46h-31v31c17.12,0,31-13.88,31-31Z"/>
  <rect class="st1" x="-2948.1" y="-241.46" width="31" height="31"/>
  <rect class="st1" x="-2824.1" y="-241.46" width="31" height="31"/>
  <rect class="st1" x="-2793.1" y="-241.46" width="31" height="31"/>
  <rect class="st1" x="-2762.1" y="-241.46" width="31" height="31"/>
  <path class="st1" d="M-2700.1-241.46h-31v31c17.12,0,31-13.88,31-31Z"/>
  <rect class="st1" x="-2669.1" y="-241.46" width="31" height="31"/>
  <path class="st1" d="M-3645.6-210.46h15.5v31h-15.5c-8.56,0-15.5-6.94-15.5-15.5s6.94-15.5,15.5-15.5Z"/>
  <path class="st1" d="M-3614.6-179.46h-15.5v-31h15.5c8.56,0,15.5,6.94,15.5,15.5s-6.94,15.5-15.5,15.5Z"/>
  <rect class="st1" x="-3506.1" y="-210.46" width="31" height="31"/>
  <path class="st1" d="M-3428.6-210.46c8.56,0,15.5,6.94,15.5,15.5s-6.94,15.5-15.5,15.5-15.5-6.94-15.5-15.5,6.94-15.5,15.5-15.5Z"/>
  <rect class="st1" x="-3382.1" y="-210.46" width="31" height="31"/>
  <path class="st1" d="M-3335.6-179.46h-15.5v-31h15.5c8.56,0,15.5,6.94,15.5,15.5s-6.94,15.5-15.5,15.5Z"/>
  <path class="st1" d="M-3242.6-210.46c8.56,0,15.5,6.94,15.5,15.5s-6.94,15.5-15.5,15.5-15.5-6.94-15.5-15.5,6.94-15.5,15.5-15.5Z"/>
  <path class="st1" d="M-3134.1-194.96v-15.5h31v15.5c0,8.56-6.94,15.5-15.5,15.5s-15.5-6.94-15.5-15.5Z"/>
  <rect class="st1" x="-3072.1" y="-210.46" width="31" height="31"/>
  <path class="st1" d="M-2979.1-194.96v15.5h-31v-15.5c0-8.56,6.94-15.5,15.5-15.5s15.5,6.94,15.5,15.5Z"/>
  <rect class="st1" x="-2948.1" y="-210.46" width="31" height="31"/>
  <path class="st1" d="M-2855.1-179.46h31v-31c-17.12,0-31,13.88-31,31Z"/>
  <rect class="st1" x="-2824.1" y="-210.46" width="31" height="31"/>
  <rect class="st1" x="-2762.1" y="-210.46" width="31" height="31"/>
  <path class="st1" d="M-2684.6-210.46h15.5v31h-15.5c-8.56,0-15.5-6.94-15.5-15.5s6.94-15.5,15.5-15.5Z"/>
  <rect class="st1" x="-2669.1" y="-210.46" width="31" height="31"/>
  <path class="st1" d="M-3568.1-163.96v15.5h-31v-15.5c0-8.56,6.94-15.5,15.5-15.5s15.5,6.94,15.5,15.5Z"/>
  <path class="st1" d="M-3521.6-179.46h15.5v31h-15.5c-8.56,0-15.5-6.94-15.5-15.5s6.94-15.5,15.5-15.5Z"/>
  <rect class="st1" x="-3506.1" y="-179.46" width="31" height="31"/>
  <path class="st1" d="M-3459.6-148.46h-15.5v-31h15.5c8.56,0,15.5,6.94,15.5,15.5s-6.94,15.5-15.5,15.5Z"/>
  <path class="st1" d="M-3413.1-148.46h31v-31c-17.12,0-31,13.88-31,31Z"/>
  <path class="st1" d="M-3351.1-179.46h-31v31c17.12,0,31-13.88,31-31Z"/>
  <path class="st1" d="M-3304.6-179.46c8.56,0,15.5,6.94,15.5,15.5s-6.94,15.5-15.5,15.5-15.5-6.94-15.5-15.5,6.94-15.5,15.5-15.5Z"/>
  <path class="st1" d="M-3227.1-148.46h31v-31c-17.12,0-31,13.88-31,31Z"/>
  <path class="st1" d="M-3196.1-179.46v31h31c0-17.12-13.88-31-31-31Z"/>
  <path class="st1" d="M-3087.6-179.46h15.5v31h-15.5c-8.56,0-15.5-6.94-15.5-15.5s6.94-15.5,15.5-15.5Z"/>
  <rect class="st1" x="-3072.1" y="-179.46" width="31" height="31"/>
  <rect class="st1" x="-3041.1" y="-179.46" width="31" height="31"/>
  <rect class="st1" x="-3010.1" y="-179.46" width="31" height="31"/>
  <rect class="st1" x="-2948.1" y="-179.46" width="31" height="31"/>
  <path class="st1" d="M-2917.1-179.46v31h31c0-17.12-13.88-31-31-31Z"/>
  <rect class="st1" x="-2855.1" y="-179.46" width="31" height="31"/>
  <rect class="st1" x="-2824.1" y="-179.46" width="31" height="31"/>
  <rect class="st1" x="-2793.1" y="-179.46" width="31" height="31"/>
  <rect class="st1" x="-2762.1" y="-179.46" width="31" height="31"/>
  <rect class="st1" x="-2669.1" y="-179.46" width="31" height="31"/>
  <path class="st1" d="M-3645.6-148.46c8.56,0,15.5,6.94,15.5,15.5s-6.94,15.5-15.5,15.5-15.5-6.94-15.5-15.5,6.94-15.5,15.5-15.5Z"/>
  <rect class="st1" x="-3599.1" y="-148.46" width="31" height="31"/>
  <path class="st1" d="M-3568.1-148.46v31h31c0-17.12-13.88-31-31-31Z"/>
  <path class="st1" d="M-3428.6-148.46h15.5v31h-15.5c-8.56,0-15.5-6.94-15.5-15.5s6.94-15.5,15.5-15.5Z"/>
  <rect class="st1" x="-3413.1" y="-148.46" width="31" height="31"/>
  <path class="st1" d="M-3320.1-132.96v15.5h-31v-15.5c0-8.56,6.94-15.5,15.5-15.5s15.5,6.94,15.5,15.5Z"/>
  <path class="st1" d="M-3273.6-148.46c8.56,0,15.5,6.94,15.5,15.5s-6.94,15.5-15.5,15.5-15.5-6.94-15.5-15.5,6.94-15.5,15.5-15.5Z"/>
  <path class="st1" d="M-3196.1-117.46v-31h-31c0,17.12,13.88,31,31,31Z"/>
  <rect class="st1" x="-3196.1" y="-148.46" width="31" height="31"/>
  <rect class="st1" x="-3165.1" y="-148.46" width="31" height="31"/>
  <path class="st1" d="M-3134.1-148.46v31h31c0-17.12-13.88-31-31-31Z"/>
  <path class="st1" d="M-3010.1-132.96v-15.5h31v15.5c0,8.56-6.94,15.5-15.5,15.5s-15.5-6.94-15.5-15.5Z"/>
  <rect class="st1" x="-2948.1" y="-148.46" width="31" height="31"/>
  <path class="st1" d="M-2886.1-148.46h-31v31c17.12,0,31-13.88,31-31Z"/>
  <rect class="st1" x="-2855.1" y="-148.46" width="31" height="31"/>
  <rect class="st1" x="-2824.1" y="-148.46" width="31" height="31"/>
  <rect class="st1" x="-2793.1" y="-148.46" width="31" height="31"/>
  <rect class="st1" x="-2762.1" y="-148.46" width="31" height="31"/>
  <path class="st1" d="M-2715.6-117.46h-15.5v-31h15.5c8.56,0,15.5,6.94,15.5,15.5s-6.94,15.5-15.5,15.5Z"/>
  <rect class="st1" x="-2669.1" y="-148.46" width="31" height="31"/>
  <rect class="st1" x="-3599.1" y="-117.46" width="31" height="31"/>
  <rect class="st1" x="-3568.1" y="-117.46" width="31" height="31"/>
  <path class="st1" d="M-3459.6-117.46c8.56,0,15.5,6.94,15.5,15.5s-6.94,15.5-15.5,15.5-15.5-6.94-15.5-15.5,6.94-15.5,15.5-15.5Z"/>
  <rect class="st1" x="-3413.1" y="-117.46" width="31" height="31"/>
  <rect class="st1" x="-3382.1" y="-117.46" width="31" height="31"/>
  <rect class="st1" x="-3351.1" y="-117.46" width="31" height="31"/>
  <path class="st1" d="M-3304.6-86.46h-15.5v-31h15.5c8.56,0,15.5,6.94,15.5,15.5s-6.94,15.5-15.5,15.5Z"/>
  <rect class="st1" x="-3196.1" y="-117.46" width="31" height="31"/>
  <path class="st1" d="M-3134.1-101.96v-15.5h31v15.5c0,8.56-6.94,15.5-15.5,15.5s-15.5-6.94-15.5-15.5Z"/>
  <path class="st1" d="M-3041.1-101.96v15.5h-31v-15.5c0-8.56,6.94-15.5,15.5-15.5s15.5,6.94,15.5,15.5Z"/>
  <path class="st1" d="M-2948.1-101.96v-15.5h31v15.5c0,8.56-6.94,15.5-15.5,15.5s-15.5-6.94-15.5-15.5Z"/>
  <path class="st1" d="M-2824.1-86.46v-31h-31c0,17.12,13.88,31,31,31Z"/>
  <rect class="st1" x="-2824.1" y="-117.46" width="31" height="31"/>
  <rect class="st1" x="-2762.1" y="-117.46" width="31" height="31"/>
  <rect class="st1" x="-2669.1" y="-117.46" width="31" height="31"/>
  <path class="st1" d="M-3645.6-86.46c8.56,0,15.5,6.94,15.5,15.5s-6.94,15.5-15.5,15.5-15.5-6.94-15.5-15.5,6.94-15.5,15.5-15.5Z"/>
  <path class="st1" d="M-3568.1-55.46v-31h-31c0,17.12,13.88,31,31,31Z"/>
  <rect class="st1" x="-3568.1" y="-86.46" width="31" height="31"/>
  <path class="st1" d="M-3537.1-86.46v31h31c0-17.12-13.88-31-31-31Z"/>
  <path class="st1" d="M-3428.6-86.46h15.5v31h-15.5c-8.56,0-15.5-6.94-15.5-15.5s6.94-15.5,15.5-15.5Z"/>
  <rect class="st1" x="-3413.1" y="-86.46" width="31" height="31"/>
  <rect class="st1" x="-3351.1" y="-86.46" width="31" height="31"/>
  <path class="st1" d="M-3242.6-86.46h15.5v31h-15.5c-8.56,0-15.5-6.94-15.5-15.5s6.94-15.5,15.5-15.5Z"/>
  <rect class="st1" x="-3227.1" y="-86.46" width="31" height="31"/>
  <rect class="st1" x="-3196.1" y="-86.46" width="31" height="31"/>
  <rect class="st1" x="-3072.1" y="-86.46" width="31" height="31"/>
  <path class="st1" d="M-3041.1-86.46v31h31c0-17.12-13.88-31-31-31Z"/>
  <path class="st1" d="M-2948.1-70.96v15.5h-31v-15.5c0-8.56,6.94-15.5,15.5-15.5s15.5,6.94,15.5,15.5Z"/>
  <path class="st1" d="M-2793.1-55.46v-31h-31c0,17.12,13.88,31,31,31Z"/>
  <rect class="st1" x="-2793.1" y="-86.46" width="31" height="31"/>
  <rect class="st1" x="-2762.1" y="-86.46" width="31" height="31"/>
  <path class="st1" d="M-2731.1-86.46v31h31c0-17.12-13.88-31-31-31Z"/>
  <path class="st1" d="M-2669.1-70.96v-15.5h31v15.5c0,8.56-6.94,15.5-15.5,15.5s-15.5-6.94-15.5-15.5Z"/>
  <path class="st1" d="M-3614.6-55.46c8.56,0,15.5,6.94,15.5,15.5s-6.94,15.5-15.5,15.5-15.5-6.94-15.5-15.5,6.94-15.5,15.5-15.5Z"/>
  <rect class="st1" x="-3537.1" y="-55.46" width="31" height="31"/>
  <rect class="st1" x="-3506.1" y="-55.46" width="31" height="31"/>
  <path class="st1" d="M-3459.6-24.46h-15.5v-31h15.5c8.56,0,15.5,6.94,15.5,15.5s-6.94,15.5-15.5,15.5Z"/>
  <rect class="st1" x="-3413.1" y="-55.46" width="31" height="31"/>
  <rect class="st1" x="-3382.1" y="-55.46" width="31" height="31"/>
  <rect class="st1" x="-3351.1" y="-55.46" width="31" height="31"/>
  <rect class="st1" x="-3320.1" y="-55.46" width="31" height="31"/>
  <path class="st1" d="M-3273.6-24.46h-15.5v-31h15.5c8.56,0,15.5,6.94,15.5,15.5s-6.94,15.5-15.5,15.5Z"/>
  <rect class="st1" x="-3196.1" y="-55.46" width="31" height="31"/>
  <path class="st1" d="M-3103.1-24.46h31v-31c-17.12,0-31,13.88-31,31Z"/>
  <rect class="st1" x="-3072.1" y="-55.46" width="31" height="31"/>
  <rect class="st1" x="-3041.1" y="-55.46" width="31" height="31"/>
  <path class="st1" d="M-2979.1-39.96v-15.5h31v15.5c0,8.56-6.94,15.5-15.5,15.5s-15.5-6.94-15.5-15.5Z"/>
  <path class="st1" d="M-2870.6-55.46h15.5v31h-15.5c-8.56,0-15.5-6.94-15.5-15.5s6.94-15.5,15.5-15.5Z"/>
  <path class="st1" d="M-2855.1-55.46v31h31c0-17.12-13.88-31-31-31Z"/>
  <path class="st1" d="M-2731.1-24.46v-31h-31c0,17.12,13.88,31,31,31Z"/>
  <rect class="st1" x="-2731.1" y="-55.46" width="31" height="31"/>
  <path class="st1" d="M-2684.6-24.46h-15.5v-31h15.5c8.56,0,15.5,6.94,15.5,15.5s-6.94,15.5-15.5,15.5Z"/>
  <path class="st1" d="M-3645.6-24.46c8.56,0,15.5,6.94,15.5,15.5s-6.94,15.5-15.5,15.5-15.5-6.94-15.5-15.5,6.94-15.5,15.5-15.5Z"/>
  <path class="st1" d="M-3583.6-24.46h15.5V6.54h-15.5c-8.56,0-15.5-6.94-15.5-15.5s6.94-15.5,15.5-15.5Z"/>
  <rect class="st1" x="-3568.1" y="-24.46" width="31" height="31"/>
  <rect class="st1" x="-3537.1" y="-24.46" width="31" height="31"/>
  <path class="st1" d="M-3413.1-8.96v-15.5h31v15.5c0,8.56-6.94,15.5-15.5,15.5s-15.5-6.94-15.5-15.5Z"/>
  <path class="st1" d="M-3351.1-8.96v-15.5h31v15.5c0,8.56-6.94,15.5-15.5,15.5s-15.5-6.94-15.5-15.5Z"/>
  <path class="st1" d="M-3165.1,6.54v-31h-31c0,17.12,13.88,31,31,31Z"/>
  <rect class="st1" x="-3165.1" y="-24.46" width="31" height="31"/>
  <rect class="st1" x="-3134.1" y="-24.46" width="31" height="31"/>
  <rect class="st1" x="-3103.1" y="-24.46" width="31" height="31"/>
  <rect class="st1" x="-3072.1" y="-24.46" width="31" height="31"/>
  <rect class="st1" x="-3041.1" y="-24.46" width="31" height="31"/>
  <path class="st1" d="M-2917.1-8.96V6.54h-31v-15.5c0-8.56,6.94-15.5,15.5-15.5s15.5,6.94,15.5,15.5Z"/>
  <rect class="st1" x="-2855.1" y="-24.46" width="31" height="31"/>
  <path class="st1" d="M-2824.1-24.46V6.54h31c0-17.12-13.88-31-31-31Z"/>
  <rect class="st1" x="-2731.1" y="-24.46" width="31" height="31"/>
  <path class="st1" d="M-3537.1,37.54V6.54h-31c0,17.12,13.88,31,31,31Z"/>
  <path class="st1" d="M-3506.1,6.54h-31v31c17.12,0,31-13.88,31-31Z"/>
  <path class="st1" d="M-3459.6,6.54h15.5v31h-15.5c-8.56,0-15.5-6.94-15.5-15.5s6.94-15.5,15.5-15.5Z"/>
  <path class="st1" d="M-3428.6,37.54h-15.5V6.54h15.5c8.56,0,15.5,6.94,15.5,15.5s-6.94,15.5-15.5,15.5Z"/>
  <path class="st1" d="M-3366.6,6.54c8.56,0,15.5,6.94,15.5,15.5s-6.94,15.5-15.5,15.5-15.5-6.94-15.5-15.5,6.94-15.5,15.5-15.5Z"/>
  <path class="st1" d="M-3258.1,37.54h31V6.54c-17.12,0-31,13.88-31,31Z"/>
  <path class="st1" d="M-3227.1,6.54v31h31c0-17.12-13.88-31-31-31Z"/>
  <rect class="st1" x="-3165.1" y="6.54" width="31" height="31"/>
  <rect class="st1" x="-3041.1" y="6.54" width="31" height="31"/>
  <path class="st1" d="M-2994.6,37.54h-15.5V6.54h15.5c8.56,0,15.5,6.94,15.5,15.5s-6.94,15.5-15.5,15.5Z"/>
  <rect class="st1" x="-2948.1" y="6.54" width="31" height="31"/>
  <path class="st1" d="M-2886.1,37.54h31V6.54c-17.12,0-31,13.88-31,31Z"/>
  <rect class="st1" x="-2855.1" y="6.54" width="31" height="31"/>
  <rect class="st1" x="-2824.1" y="6.54" width="31" height="31"/>
  <rect class="st1" x="-2793.1" y="6.54" width="31" height="31"/>
  <rect class="st1" x="-2762.1" y="6.54" width="31" height="31"/>
  <rect class="st1" x="-2731.1" y="6.54" width="31" height="31"/>
  <rect class="st1" x="-2700.1" y="6.54" width="31" height="31"/>
  <path class="st1" d="M-2669.1,6.54v31h31c0-17.12-13.88-31-31-31Z"/>
  <path class="st1" d="M-3475.1,53.04v15.5h-31v-15.5c0-8.56,6.94-15.5,15.5-15.5s15.5,6.94,15.5,15.5Z"/>
  <path class="st1" d="M-3320.1,53.04v15.5h-31v-15.5c0-8.56,6.94-15.5,15.5-15.5s15.5,6.94,15.5,15.5Z"/>
  <path class="st1" d="M-3227.1,68.54v-31h-31c0,17.12,13.88,31,31,31Z"/>
  <rect class="st1" x="-3227.1" y="37.54" width="31" height="31"/>
  <rect class="st1" x="-3165.1" y="37.54" width="31" height="31"/>
  <rect class="st1" x="-3134.1" y="37.54" width="31" height="31"/>
  <path class="st1" d="M-3087.6,68.54h-15.5v-31h15.5c8.56,0,15.5,6.94,15.5,15.5s-6.94,15.5-15.5,15.5Z"/>
  <path class="st1" d="M-3041.1,53.04v-15.5h31v15.5c0,8.56-6.94,15.5-15.5,15.5s-15.5-6.94-15.5-15.5Z"/>
  <path class="st1" d="M-2963.6,37.54h15.5v31h-15.5c-8.56,0-15.5-6.94-15.5-15.5s6.94-15.5,15.5-15.5Z"/>
  <rect class="st1" x="-2948.1" y="37.54" width="31" height="31"/>
  <rect class="st1" x="-2886.1" y="37.54" width="31" height="31"/>
  <rect class="st1" x="-2824.1" y="37.54" width="31" height="31"/>
  <path class="st1" d="M-2762.1,53.04v-15.5h31v15.5c0,8.56-6.94,15.5-15.5,15.5s-15.5-6.94-15.5-15.5Z"/>
  <path class="st1" d="M-2669.1,68.54v-31h-31c0,17.12,13.88,31,31,31Z"/>
  <path class="st1" d="M-2638.1,37.54h-31v31c17.12,0,31-13.88,31-31Z"/>
  <path class="st1" d="M-3614.6,68.54c8.56,0,15.5,6.94,15.5,15.5s-6.94,15.5-15.5,15.5-15.5-6.94-15.5-15.5,6.94-15.5,15.5-15.5Z"/>
  <path class="st1" d="M-3537.1,84.04v15.5h-31v-15.5c0-8.56,6.94-15.5,15.5-15.5s15.5,6.94,15.5,15.5Z"/>
  <path class="st1" d="M-3475.1,99.54v-31h-31c0,17.12,13.88,31,31,31Z"/>
  <rect class="st1" x="-3475.1" y="68.54" width="31" height="31"/>
  <path class="st1" d="M-3428.6,99.54h-15.5v-31h15.5c8.56,0,15.5,6.94,15.5,15.5s-6.94,15.5-15.5,15.5Z"/>
  <rect class="st1" x="-3351.1" y="68.54" width="31" height="31"/>
  <rect class="st1" x="-3227.1" y="68.54" width="31" height="31"/>
  <path class="st1" d="M-3134.1,99.54v-31h-31c0,17.12,13.88,31,31,31Z"/>
  <path class="st1" d="M-3103.1,68.54h-31v31c17.12,0,31-13.88,31-31Z"/>
  <path class="st1" d="M-3041.1,84.04v15.5h-31v-15.5c0-8.56,6.94-15.5,15.5-15.5s15.5,6.94,15.5,15.5Z"/>
  <path class="st1" d="M-2917.1,99.54v-31h-31c0,17.12,13.88,31,31,31Z"/>
  <rect class="st1" x="-2917.1" y="68.54" width="31" height="31"/>
  <rect class="st1" x="-2886.1" y="68.54" width="31" height="31"/>
  <rect class="st1" x="-2855.1" y="68.54" width="31" height="31"/>
  <path class="st1" d="M-2793.1,68.54h-31v31c17.12,0,31-13.88,31-31Z"/>
  <path class="st1" d="M-3583.6,99.54h15.5v31h-15.5c-8.56,0-15.5-6.94-15.5-15.5s6.94-15.5,15.5-15.5Z"/>
  <path class="st1" d="M-3537.1,99.54h-31v31c17.12,0,31-13.88,31-31Z"/>
  <path class="st1" d="M-3382.1,115.04v15.5h-31v-15.5c0-8.56,6.94-15.5,15.5-15.5s15.5,6.94,15.5,15.5Z"/>
  <rect class="st1" x="-3351.1" y="99.54" width="31" height="31"/>
  <path class="st1" d="M-3273.6,99.54c8.56,0,15.5,6.94,15.5,15.5s-6.94,15.5-15.5,15.5-15.5-6.94-15.5-15.5,6.94-15.5,15.5-15.5Z"/>
  <rect class="st1" x="-3227.1" y="99.54" width="31" height="31"/>
  <path class="st1" d="M-3041.1,130.54v-31h-31c0,17.12,13.88,31,31,31Z"/>
  <rect class="st1" x="-3041.1" y="99.54" width="31" height="31"/>
  <path class="st1" d="M-3010.1,99.54v31h31c0-17.12-13.88-31-31-31Z"/>
  <rect class="st1" x="-2917.1" y="99.54" width="31" height="31"/>
  <rect class="st1" x="-2886.1" y="99.54" width="31" height="31"/>
  <path class="st1" d="M-2746.6,99.54c8.56,0,15.5,6.94,15.5,15.5s-6.94,15.5-15.5,15.5-15.5-6.94-15.5-15.5,6.94-15.5,15.5-15.5Z"/>
  <path class="st1" d="M-2638.1,115.04v15.5h-31v-15.5c0-8.56,6.94-15.5,15.5-15.5s15.5,6.94,15.5,15.5Z"/>
  <path class="st1" d="M-3645.6,130.54h15.5v31h-15.5c-8.56,0-15.5-6.94-15.5-15.5s6.94-15.5,15.5-15.5Z"/>
  <path class="st1" d="M-3614.6,161.54h-15.5v-31h15.5c8.56,0,15.5,6.94,15.5,15.5s-6.94,15.5-15.5,15.5Z"/>
  <path class="st1" d="M-3490.6,130.54h15.5v31h-15.5c-8.56,0-15.5-6.94-15.5-15.5s6.94-15.5,15.5-15.5Z"/>
  <path class="st1" d="M-3459.6,161.54h-15.5v-31h15.5c8.56,0,15.5,6.94,15.5,15.5s-6.94,15.5-15.5,15.5Z"/>
  <rect class="st1" x="-3413.1" y="130.54" width="31" height="31"/>
  <path class="st1" d="M-3320.1,161.54v-31h-31c0,17.12,13.88,31,31,31Z"/>
  <path class="st1" d="M-3304.6,161.54h-15.5v-31h15.5c8.56,0,15.5,6.94,15.5,15.5s-6.94,15.5-15.5,15.5Z"/>
  <rect class="st1" x="-3227.1" y="130.54" width="31" height="31"/>
  <path class="st1" d="M-3180.6,161.54h-15.5v-31h15.5c8.56,0,15.5,6.94,15.5,15.5s-6.94,15.5-15.5,15.5Z"/>
  <path class="st1" d="M-3010.1,146.04v-15.5h31v15.5c0,8.56-6.94,15.5-15.5,15.5s-15.5-6.94-15.5-15.5Z"/>
  <rect class="st1" x="-2917.1" y="130.54" width="31" height="31"/>
  <rect class="st1" x="-2886.1" y="130.54" width="31" height="31"/>
  <path class="st1" d="M-2839.6,161.54h-15.5v-31h15.5c8.56,0,15.5,6.94,15.5,15.5s-6.94,15.5-15.5,15.5Z"/>
  <rect class="st1" x="-2669.1" y="130.54" width="31" height="31"/>
  <path class="st1" d="M-3583.6,161.54c8.56,0,15.5,6.94,15.5,15.5s-6.94,15.5-15.5,15.5-15.5-6.94-15.5-15.5,6.94-15.5,15.5-15.5Z"/>
  <path class="st1" d="M-3521.6,161.54c8.56,0,15.5,6.94,15.5,15.5s-6.94,15.5-15.5,15.5-15.5-6.94-15.5-15.5,6.94-15.5,15.5-15.5Z"/>
  <path class="st1" d="M-3382.1,192.54v-31h-31c0,17.12,13.88,31,31,31Z"/>
  <path class="st1" d="M-3382.1,161.54v31h31c0-17.12-13.88-31-31-31Z"/>
  <path class="st1" d="M-3273.6,161.54h15.5v31h-15.5c-8.56,0-15.5-6.94-15.5-15.5s6.94-15.5,15.5-15.5Z"/>
  <rect class="st1" x="-3258.1" y="161.54" width="31" height="31"/>
  <path class="st1" d="M-3196.1,161.54h-31v31c17.12,0,31-13.88,31-31Z"/>
  <path class="st1" d="M-3165.1,192.54h31v-31c-17.12,0-31,13.88-31,31Z"/>
  <rect class="st1" x="-3134.1" y="161.54" width="31" height="31"/>
  <rect class="st1" x="-3103.1" y="161.54" width="31" height="31"/>
  <path class="st1" d="M-3056.6,192.54h-15.5v-31h15.5c8.56,0,15.5,6.94,15.5,15.5s-6.94,15.5-15.5,15.5Z"/>
  <path class="st1" d="M-2979.1,192.54h31v-31c-17.12,0-31,13.88-31,31Z"/>
  <rect class="st1" x="-2948.1" y="161.54" width="31" height="31"/>
  <rect class="st1" x="-2917.1" y="161.54" width="31" height="31"/>
  <path class="st1" d="M-2793.1,177.04v15.5h-31v-15.5c0-8.56,6.94-15.5,15.5-15.5s15.5,6.94,15.5,15.5Z"/>
  <path class="st1" d="M-2746.6,161.54c8.56,0,15.5,6.94,15.5,15.5s-6.94,15.5-15.5,15.5-15.5-6.94-15.5-15.5,6.94-15.5,15.5-15.5Z"/>
  <path class="st1" d="M-2700.1,192.54h31v-31c-17.12,0-31,13.88-31,31Z"/>
  <rect class="st1" x="-2669.1" y="161.54" width="31" height="31"/>
  <path class="st1" d="M-3645.6,192.54h15.5v31h-15.5c-8.56,0-15.5-6.94-15.5-15.5s6.94-15.5,15.5-15.5Z"/>
  <path class="st1" d="M-3614.6,223.54h-15.5v-31h15.5c8.56,0,15.5,6.94,15.5,15.5s-6.94,15.5-15.5,15.5Z"/>
  <path class="st1" d="M-3459.6,192.54c8.56,0,15.5,6.94,15.5,15.5s-6.94,15.5-15.5,15.5-15.5-6.94-15.5-15.5,6.94-15.5,15.5-15.5Z"/>
  <path class="st1" d="M-3382.1,208.04v-15.5h31v15.5c0,8.56-6.94,15.5-15.5,15.5s-15.5-6.94-15.5-15.5Z"/>
  <path class="st1" d="M-3258.1,208.04v-15.5h31v15.5c0,8.56-6.94,15.5-15.5,15.5s-15.5-6.94-15.5-15.5Z"/>
  <path class="st1" d="M-3196.1,223.54h31v-31c-17.12,0-31,13.88-31,31Z"/>
  <rect class="st1" x="-3165.1" y="192.54" width="31" height="31"/>
  <rect class="st1" x="-3134.1" y="192.54" width="31" height="31"/>
  <path class="st1" d="M-3025.6,192.54c8.56,0,15.5,6.94,15.5,15.5s-6.94,15.5-15.5,15.5-15.5-6.94-15.5-15.5,6.94-15.5,15.5-15.5Z"/>
  <path class="st1" d="M-2979.1,208.04v-15.5h31v15.5c0,8.56-6.94,15.5-15.5,15.5s-15.5-6.94-15.5-15.5Z"/>
  <rect class="st1" x="-2917.1" y="192.54" width="31" height="31"/>
  <rect class="st1" x="-2886.1" y="192.54" width="31" height="31"/>
  <rect class="st1" x="-2855.1" y="192.54" width="31" height="31"/>
  <rect class="st1" x="-2824.1" y="192.54" width="31" height="31"/>
  <path class="st1" d="M-2793.1,192.54v31h31c0-17.12-13.88-31-31-31Z"/>
  <rect class="st1" x="-2700.1" y="192.54" width="31" height="31"/>
  <rect class="st1" x="-2669.1" y="192.54" width="31" height="31"/>
  <path class="st1" d="M-3382.1,239.04v15.5h-31v-15.5c0-8.56,6.94-15.5,15.5-15.5s15.5,6.94,15.5,15.5Z"/>
  <path class="st1" d="M-3351.1,254.54h31v-31c-17.12,0-31,13.88-31,31Z"/>
  <rect class="st1" x="-3320.1" y="223.54" width="31" height="31"/>
  <path class="st1" d="M-3289.1,223.54v31h31c0-17.12-13.88-31-31-31Z"/>
  <path class="st1" d="M-3211.6,223.54h15.5v31h-15.5c-8.56,0-15.5-6.94-15.5-15.5s6.94-15.5,15.5-15.5Z"/>
  <rect class="st1" x="-3196.1" y="223.54" width="31" height="31"/>
  <rect class="st1" x="-3165.1" y="223.54" width="31" height="31"/>
  <path class="st1" d="M-3103.1,223.54h-31v31c17.12,0,31-13.88,31-31Z"/>
  <path class="st1" d="M-3041.1,239.04v15.5h-31v-15.5c0-8.56,6.94-15.5,15.5-15.5s15.5,6.94,15.5,15.5Z"/>
  <rect class="st1" x="-2917.1" y="223.54" width="31" height="31"/>
  <rect class="st1" x="-2793.1" y="223.54" width="31" height="31"/>
  <path class="st1" d="M-2669.1,254.54v-31h-31c0,17.12,13.88,31,31,31Z"/>
  <rect class="st1" x="-2669.1" y="223.54" width="31" height="31"/>
  <rect class="st1" x="-3413.1" y="254.54" width="31" height="31"/>
  <rect class="st1" x="-3351.1" y="254.54" width="31" height="31"/>
  <rect class="st1" x="-3289.1" y="254.54" width="31" height="31"/>
  <rect class="st1" x="-3196.1" y="254.54" width="31" height="31"/>
  <path class="st1" d="M-3134.1,254.54h-31v31c17.12,0,31-13.88,31-31h0Z"/>
  <path class="st1" d="M-3087.6,254.54h15.5v31h-15.5c-8.56,0-15.5-6.94-15.5-15.5s6.94-15.5,15.5-15.5h0Z"/>
  <rect class="st1" x="-3072.1" y="254.54" width="31" height="31"/>
  <path class="st1" d="M-2994.6,254.54h15.5v31h-15.5c-8.56,0-15.5-6.94-15.5-15.5s6.94-15.5,15.5-15.5h0Z"/>
  <path class="st1" d="M-2979.1,254.54v31h31c0-17.12-13.88-31-31-31h0Z"/>
  <rect class="st1" x="-2917.1" y="254.54" width="31" height="31"/>
  <path class="st1" d="M-2839.6,254.54c8.56,0,15.5,6.94,15.5,15.5s-6.94,15.5-15.5,15.5-15.5-6.94-15.5-15.5,6.94-15.5,15.5-15.5h0Z"/>
  <rect class="st1" x="-2793.1" y="254.54" width="31" height="31"/>
  <path class="st1" d="M-2715.6,254.54c8.56,0,15.5,6.94,15.5,15.5s-6.94,15.5-15.5,15.5-15.5-6.94-15.5-15.5,6.94-15.5,15.5-15.5h0Z"/>
  <rect class="st1" x="-2669.1" y="254.54" width="31" height="31"/>
  <path class="st1" d="M-3382.1,316.54v-31h-31c0,17.12,13.88,31,31,31Z"/>
  <rect class="st1" x="-3382.1" y="285.54" width="31" height="31"/>
  <path class="st1" d="M-3320.1,285.54h-31v31c17.12,0,31-13.88,31-31Z"/>
  <path class="st1" d="M-3258.1,316.54v-31h-31c0,17.12,13.88,31,31,31Z"/>
  <path class="st1" d="M-3242.6,316.54h-15.5v-31h15.5c8.56,0,15.5,6.94,15.5,15.5s-6.94,15.5-15.5,15.5Z"/>
  <rect class="st1" x="-3196.1" y="285.54" width="31" height="31"/>
  <path class="st1" d="M-3118.6,285.54c8.56,0,15.5,6.94,15.5,15.5s-6.94,15.5-15.5,15.5-15.5-6.94-15.5-15.5,6.94-15.5,15.5-15.5Z"/>
  <rect class="st1" x="-3072.1" y="285.54" width="31" height="31"/>
  <rect class="st1" x="-2979.1" y="285.54" width="31" height="31"/>
  <rect class="st1" x="-2948.1" y="285.54" width="31" height="31"/>
  <rect class="st1" x="-2917.1" y="285.54" width="31" height="31"/>
  <rect class="st1" x="-2793.1" y="285.54" width="31" height="31"/>
  <path class="st1" d="M-2746.6,316.54h-15.5v-31h15.5c8.56,0,15.5,6.94,15.5,15.5s-6.94,15.5-15.5,15.5Z"/>
  <path class="st1" d="M-2684.6,285.54h15.5v31h-15.5c-8.56,0-15.5-6.94-15.5-15.5s6.94-15.5,15.5-15.5Z"/>
  <path class="st1" d="M-2638.1,285.54h-31v31c17.12,0,31-13.88,31-31Z"/>
  <path class="st1" d="M-3382.1,332.04v-15.5h31v15.5c0,8.56-6.94,15.5-15.5,15.5s-15.5-6.94-15.5-15.5Z"/>
  <path class="st1" d="M-3304.6,316.54c8.56,0,15.5,6.94,15.5,15.5s-6.94,15.5-15.5,15.5-15.5-6.94-15.5-15.5,6.94-15.5,15.5-15.5Z"/>
  <path class="st1" d="M-3165.1,347.54v-31h-31c0,17.12,13.88,31,31,31Z"/>
  <path class="st1" d="M-3149.6,347.54h-15.5v-31h15.5c8.56,0,15.5,6.94,15.5,15.5s-6.94,15.5-15.5,15.5Z"/>
  <path class="st1" d="M-3087.6,316.54h15.5v31h-15.5c-8.56,0-15.5-6.94-15.5-15.5s6.94-15.5,15.5-15.5Z"/>
  <rect class="st1" x="-3072.1" y="316.54" width="31" height="31"/>
  <rect class="st1" x="-3041.1" y="316.54" width="31" height="31"/>
  <rect class="st1" x="-3010.1" y="316.54" width="31" height="31"/>
  <rect class="st1" x="-2979.1" y="316.54" width="31" height="31"/>
  <rect class="st1" x="-2948.1" y="316.54" width="31" height="31"/>
  <rect class="st1" x="-2917.1" y="316.54" width="31" height="31"/>
  <rect class="st1" x="-2886.1" y="316.54" width="31" height="31"/>
  <rect class="st1" x="-2855.1" y="316.54" width="31" height="31"/>
  <rect class="st1" x="-2824.1" y="316.54" width="31" height="31"/>
  <rect class="st1" x="-2793.1" y="316.54" width="31" height="31"/>
  <path class="st1" d="M-3273.6,347.54c8.56,0,15.5,6.94,15.5,15.5s-6.94,15.5-15.5,15.5-15.5-6.94-15.5-15.5,6.94-15.5,15.5-15.5Z"/>
  <path class="st1" d="M-3103.1,363.04v15.5h-31v-15.5c0-8.56,6.94-15.5,15.5-15.5s15.5,6.94,15.5,15.5Z"/>
  <rect class="st1" x="-3041.1" y="347.54" width="31" height="31"/>
  <rect class="st1" x="-3010.1" y="347.54" width="31" height="31"/>
  <path class="st1" d="M-2948.1,347.54h-31v31c17.12,0,31-13.88,31-31Z"/>
  <path class="st1" d="M-2886.1,378.54v-31h-31c0,17.12,13.88,31,31,31Z"/>
  <path class="st1" d="M-2855.1,347.54h-31v31c17.12,0,31-13.88,31-31Z"/>
  <path class="st1" d="M-2793.1,378.54v-31h-31c0,17.12,13.88,31,31,31Z"/>
  <rect class="st1" x="-2793.1" y="347.54" width="31" height="31"/>
  <path class="st1" d="M-2669.1,363.04v15.5h-31v-15.5c0-8.56,6.94-15.5,15.5-15.5s15.5,6.94,15.5,15.5Z"/>
  <path class="st1" d="M-3397.6,378.54c8.56,0,15.5,6.94,15.5,15.5s-6.94,15.5-15.5,15.5-15.5-6.94-15.5-15.5,6.94-15.5,15.5-15.5Z"/>
  <path class="st1" d="M-3320.1,394.04v15.5h-31v-15.5c0-8.56,6.94-15.5,15.5-15.5s15.5,6.94,15.5,15.5Z"/>
  <path class="st1" d="M-3258.1,409.54h31v-31c-17.12,0-31,13.88-31,31Z"/>
  <path class="st1" d="M-3227.1,378.54v31h31c0-17.12-13.88-31-31-31Z"/>
  <path class="st1" d="M-3165.1,409.54h31v-31c-17.12,0-31,13.88-31,31Z"/>
  <rect class="st1" x="-3134.1" y="378.54" width="31" height="31"/>
  <rect class="st1" x="-3103.1" y="378.54" width="31" height="31"/>
  <rect class="st1" x="-3072.1" y="378.54" width="31" height="31"/>
  <rect class="st1" x="-3041.1" y="378.54" width="31" height="31"/>
  <path class="st1" d="M-2793.1,394.04v-15.5h31v15.5c0,8.56-6.94,15.5-15.5,15.5s-15.5-6.94-15.5-15.5Z"/>
  <path class="st1" d="M-2715.6,378.54h15.5v31h-15.5c-8.56,0-15.5-6.94-15.5-15.5s6.94-15.5,15.5-15.5Z"/>
  <rect class="st1" x="-2700.1" y="378.54" width="31" height="31"/>
  <path class="st1" d="M-2653.6,409.54h-15.5v-31h15.5c8.56,0,15.5,6.94,15.5,15.5s-6.94,15.5-15.5,15.5Z"/>
  <path class="st1" d="M-3320.1,440.54v-31h-31c0,17.12,13.88,31,31,31Z"/>
  <path class="st1" d="M-3320.1,409.54v31h31c0-17.12-13.88-31-31-31Z"/>
  <path class="st1" d="M-3227.1,440.54v-31h-31c0,17.12,13.88,31,31,31Z"/>
  <rect class="st1" x="-3227.1" y="409.54" width="31" height="31"/>
  <rect class="st1" x="-3196.1" y="409.54" width="31" height="31"/>
  <rect class="st1" x="-3165.1" y="409.54" width="31" height="31"/>
  <rect class="st1" x="-3134.1" y="409.54" width="31" height="31"/>
  <path class="st1" d="M-3072.1,409.54h-31v31c17.12,0,31-13.88,31-31Z"/>
  <rect class="st1" x="-3041.1" y="409.54" width="31" height="31"/>
  <path class="st1" d="M-3010.1,409.54v31h31c0-17.12-13.88-31-31-31Z"/>
  <path class="st1" d="M-2886.1,425.04v15.5h-31v-15.5c0-8.56,6.94-15.5,15.5-15.5s15.5,6.94,15.5,15.5Z"/>
  <path class="st1" d="M-3366.6,440.54c8.56,0,15.5,6.94,15.5,15.5s-6.94,15.5-15.5,15.5-15.5-6.94-15.5-15.5,6.94-15.5,15.5-15.5Z"/>
  <path class="st1" d="M-3289.1,471.54v-31h-31c0,17.12,13.88,31,31,31Z"/>
  <path class="st1" d="M-3273.6,471.54h-15.5v-31h15.5c8.56,0,15.5,6.94,15.5,15.5s-6.94,15.5-15.5,15.5Z"/>
  <path class="st1" d="M-3196.1,471.54v-31h-31c0,17.12,13.88,31,31,31Z"/>
  <rect class="st1" x="-3196.1" y="440.54" width="31" height="31"/>
  <rect class="st1" x="-3165.1" y="440.54" width="31" height="31"/>
  <path class="st1" d="M-3103.1,440.54h-31v31c17.12,0,31-13.88,31-31Z"/>
  <path class="st1" d="M-3010.1,471.54v-31h-31c0,17.12,13.88,31,31,31Z"/>
  <path class="st1" d="M-2979.1,440.54h-31v31c17.12,0,31-13.88,31-31Z"/>
  <path class="st1" d="M-2886.1,471.54v-31h-31c0,17.12,13.88,31,31,31Z"/>
  <path class="st1" d="M-2870.6,471.54h-15.5v-31h15.5c8.56,0,15.5,6.94,15.5,15.5s-6.94,15.5-15.5,15.5Z"/>
  <path class="st1" d="M-2777.6,440.54c8.56,0,15.5,6.94,15.5,15.5s-6.94,15.5-15.5,15.5-15.5-6.94-15.5-15.5,6.94-15.5,15.5-15.5Z"/>
  <path class="st1" d="M-2715.6,440.54c8.56,0,15.5,6.94,15.5,15.5s-6.94,15.5-15.5,15.5-15.5-6.94-15.5-15.5,6.94-15.5,15.5-15.5Z"/>
  <path class="st1" d="M-2653.6,440.54c8.56,0,15.5,6.94,15.5,15.5s-6.94,15.5-15.5,15.5-15.5-6.94-15.5-15.5,6.94-15.5,15.5-15.5Z"/>
  <g>
    <path class="st0" d="M-3518.19-518.89h-68.83c-8.86,0-17.08,2.73-23.82,7.37-5.25,3.61-9.61,8.38-12.69,13.93-3.2,5.77-5.02,12.37-5.02,19.38v70.46c0,22.45,18.63,40.71,41.54,40.71h68.82c22.91,0,41.54-18.26,41.54-40.71v-70.46c0-22.44-18.63-40.69-41.54-40.69h0Z"/>
    <path class="st1" d="M-3518.19-551.44h-68.83c-33.54,0-61.96,22.16-71.05,52.45-.94,3.13-1.67,6.35-2.18,9.65-.56,3.63-.85,7.35-.85,11.14v70.46c0,40.4,33.24,73.26,74.09,73.26h68.82c40.84,0,74.09-32.86,74.09-73.26v-70.46c0-40.38-33.24-73.24-74.09-73.24h0ZM-3476.65-407.74c0,22.45-18.63,40.71-41.54,40.71h-68.82c-22.91,0-41.54-18.26-41.54-40.71v-70.46c0-7.01,1.82-13.61,5.02-19.38,3.08-5.55,7.44-10.32,12.69-13.93,6.75-4.65,14.97-7.37,23.82-7.37h68.83c22.9,0,41.54,18.25,41.54,40.69v70.46h0Z"/>
  </g>
  <g>
    <path class="st0" d="M-2712.19-518.89h-68.83c-8.86,0-17.08,2.73-23.82,7.37-5.25,3.61-9.61,8.38-12.69,13.93-3.2,5.77-5.02,12.37-5.02,19.38v70.46c0,22.45,18.63,40.71,41.54,40.71h68.82c22.91,0,41.54-18.26,41.54-40.71v-70.46c0-22.44-18.63-40.69-41.54-40.69h0Z"/>
    <path class="st1" d="M-2712.19-551.44h-68.83c-33.54,0-61.96,22.16-71.05,52.45-.94,3.13-1.67,6.35-2.18,9.65-.56,3.63-.85,7.35-.85,11.14v70.46c0,40.4,33.24,73.26,74.09,73.26h68.82c40.84,0,74.09-32.86,74.09-73.26v-70.46c0-40.38-33.24-73.24-74.09-73.24h0ZM-2670.65-407.74c0,22.45-18.63,40.71-41.54,40.71h-68.82c-22.91,0-41.54-18.26-41.54-40.71v-70.46c0-7.01,1.82-13.61,5.02-19.38,3.08-5.55,7.44-10.32,12.69-13.93,6.75-4.65,14.97-7.37,23.82-7.37h68.83c22.9,0,41.54,18.25,41.54,40.69v70.46h0Z"/>
  </g>
  <g>
    <path class="st0" d="M-3518.19,287.11h-68.83c-8.86,0-17.08,2.73-23.82,7.37-5.25,3.61-9.61,8.38-12.69,13.93-3.2,5.77-5.02,12.37-5.02,19.38v70.46c0,22.45,18.63,40.71,41.54,40.71h68.82c22.91,0,41.54-18.26,41.54-40.71v-70.46c0-22.44-18.63-40.69-41.54-40.69h0Z"/>
    <path class="st1" d="M-3518.19,254.56h-68.83c-33.54,0-61.96,22.16-71.05,52.45-.94,3.13-1.67,6.35-2.18,9.65-.56,3.63-.85,7.35-.85,11.14v70.46c0,40.4,33.24,73.26,74.09,73.26h68.82c40.84,0,74.09-32.86,74.09-73.26v-70.46c0-40.38-33.24-73.24-74.09-73.24h0ZM-3476.65,398.26c0,22.45-18.63,40.71-41.54,40.71h-68.82c-22.91,0-41.54-18.26-41.54-40.71v-70.46c0-7.01,1.82-13.61,5.02-19.38,3.08-5.55,7.44-10.32,12.69-13.93,6.75-4.65,14.97-7.37,23.82-7.37h68.83c22.9,0,41.54,18.25,41.54,40.69v70.46h0Z"/>
  </g>
  <path class="st1" d="M-3573.66-396.46c-14.03,0-25.45-11.19-25.45-24.93v-43.15c0-4.29,1.12-8.33,3.07-11.87,1.89-3.4,4.56-6.33,7.77-8.53,4.13-2.84,9.17-4.52,14.59-4.52h42.15c14.02,0,25.44,11.18,25.44,24.92v43.15c0,13.74-11.41,24.93-25.44,24.93h-42.14,0Z"/>
  <path class="st1" d="M-2767.66-396.46c-14.03,0-25.45-11.19-25.45-24.93v-43.15c0-4.29,1.12-8.33,3.07-11.87,1.89-3.4,4.56-6.33,7.77-8.53,4.13-2.84,9.17-4.52,14.59-4.52h42.15c14.02,0,25.44,11.18,25.44,24.92v43.15c0,13.74-11.41,24.93-25.44,24.93h-42.14,0Z"/>
  <path class="st1" d="M-3573.66,409.54c-14.03,0-25.45-11.19-25.45-24.93v-43.15c0-4.29,1.12-8.33,3.07-11.87,1.89-3.4,4.56-6.33,7.77-8.53,4.13-2.84,9.17-4.52,14.59-4.52h42.15c14.02,0,25.44,11.18,25.44,24.92v43.15c0,13.74-11.41,24.93-25.44,24.93h-42.14,0Z"/>
  <g>
    <rect class="st2" x="-3314.26" y="-204.61" width="329.32" height="329.32"/>
    <g>
      <path class="st7" d="M-3253.67,51.65c0,4.69-2.17,8.49-8.56,8.49h-14.67c-1.36,0-1.77-.41-1.77-1.77V13.33c0-1.36.41-1.77,1.77-1.77h14.4c6.39,0,8.49,3.81,8.49,8.49v7.14c0,3.12-1.36,7.2-5.64,8.15v.14c4.35.81,5.98,4.14,5.98,7.47v8.7h0ZM-3269.91,18.9v12.84h3.4c2.38,0,3.81-1.63,3.81-4.14v-6.18c0-1.36-1.09-2.51-2.31-2.51h-4.9ZM-3262.71,50.3v-7c0-2.51-1.43-4.14-3.81-4.14h-3.4v13.66h4.89c1.22,0,2.31-1.16,2.31-2.51h.01Z"/>
      <path class="st7" d="M-3238.93,11.57c1.36,0,1.77.41,1.77,1.77v45.05c0,1.36-.41,1.77-1.77,1.77h-5.23c-1.36,0-1.77-.41-1.77-1.77V13.33c0-1.36.41-1.77,1.77-1.77h5.23Z"/>
      <path class="st7" d="M-3219.63,38.47h-.07v19.91c0,1.36-.41,1.77-1.77,1.77h-5.23c-1.36,0-1.77-.41-1.77-1.77V13.34c0-1.36.41-1.77,1.77-1.77h5.23c1.36,0,1.77.41,1.77,1.77v18.41h.07l8.09-18.55c.54-1.29,1.02-1.63,2.44-1.63h5.5c1.29,0,1.56.41,1.02,1.63l-9.44,21.2,11.42,24.12c.54,1.22.27,1.63-1.02,1.63h-6.45c-1.43,0-1.9-.34-2.51-1.63l-9.04-20.04h-.01Z"/>
      <path class="st7" d="M-3174.11,58.38c0,1.36-.41,1.77-1.77,1.77h-18.07c-1.36,0-1.77-.41-1.77-1.77V13.33c0-1.36.41-1.77,1.77-1.77h17.32c1.36,0,1.77.41,1.77,1.77v3.94c0,1.36-.41,1.77-1.77,1.77h-10.33v12.7h6.66c1.36,0,1.77.41,1.77,1.77v4.21c0,1.36-.41,1.77-1.77,1.77h-6.66v13.18h11.07c1.36,0,1.77.41,1.77,1.77v3.94h.01Z"/>
      <path class="st7" d="M-3157.67,52.06V19.65c0-4.49,1.97-8.09,7.95-8.09h9.1c5.91,0,7.88,3.6,7.88,8.09v5.03c0,1.43-.34,1.83-1.7,2.11l-5.03,1.02c-1.29.27-1.7-.07-1.7-1.43v-7.34h-7.81v33.63h7.81v-8.56c0-1.36.41-1.7,1.77-1.43l4.89.95c1.43.27,1.77.68,1.77,2.11v6.32c0,4.49-1.97,8.09-7.88,8.09h-9.1c-5.98,0-7.95-3.6-7.95-8.09h0Z"/>
      <path class="st7" d="M-3116.7,31.74h9.04V13.33c0-1.36.41-1.77,1.77-1.77h5.16c1.36,0,1.77.41,1.77,1.77v45.05c0,1.36-.41,1.77-1.77,1.77h-5.16c-1.36,0-1.77-.41-1.77-1.77v-19.23h-9.04v19.23c0,1.36-.41,1.77-1.77,1.77h-5.23c-1.36,0-1.77-.41-1.77-1.77V13.33c0-1.36.41-1.77,1.77-1.77h5.23c1.36,0,1.77.41,1.77,1.77v18.41Z"/>
      <path class="st7" d="M-3072.06,60.15c-1.43,0-1.83-.34-2.11-1.77l-1.49-8.09h-8.29l-1.49,8.09c-.27,1.43-.68,1.77-2.11,1.77h-4.89c-1.36,0-1.7-.41-1.36-1.7l9.79-45.18c.34-1.36.75-1.7,2.17-1.7h4.69c1.43,0,1.84.34,2.17,1.7l9.99,45.18c.34,1.29,0,1.7-1.36,1.7h-5.71,0ZM-3078.79,32.63l-.95-5.84h-.07l-.95,5.84-1.77,10.26h5.5l-1.77-10.26h.01Z"/>
      <path class="st7" d="M-3063.23,19.04c-1.36,0-1.77-.41-1.77-1.77v-3.94c0-1.36.41-1.77,1.77-1.77h18.82c1.36,0,1.77.41,1.77,1.77v3.94c0,1.36-.41,1.77-1.77,1.77h-5.09v39.34c0,1.36-.41,1.77-1.77,1.77h-5.16c-1.36,0-1.77-.41-1.77-1.77V19.04h-5.03Z"/>
      <path class="st7" d="M-3039.12,19.04c-1.36,0-1.77-.41-1.77-1.77v-3.94c0-1.36.41-1.77,1.77-1.77h18.82c1.36,0,1.77.41,1.77,1.77v3.94c0,1.36-.41,1.77-1.77,1.77h-5.09v39.34c0,1.36-.41,1.77-1.77,1.77h-5.16c-1.36,0-1.77-.41-1.77-1.77V19.04h-5.03Z"/>
    </g>
    <g class="st5">
      <circle class="st3" cx="-3150.96" cy="-66.68" r="12.3"/>
      <path class="st3" d="M-3106.29-78.92c0,2.74-2.14,5-4.85,5.13h-.56c-2.09-.11-3.89-1.45-4.58-3.42v-.03c-.04-.12-.08-.25-.12-.36-2.26-7.19-6.86-13.64-12.93-18.16-6.29-4.68-13.76-7.15-21.62-7.15-2.21,0-4.36.2-6.46.58-1.97.36-3.87.87-5.71,1.53l16.27,30.32c1.39,2.56.44,5.77-2.12,7.16-.77.42-1.64.64-2.51.64-1.94,0-3.72-1.05-4.64-2.75l-16.32-30.39-4.9-9.13-20.71-38.57-.03-.04c-1.49-2.86-1.38-6.22.29-8.98s4.6-4.41,7.83-4.41h47.55c5.24,0,9.84,2.1,12.97,5.91,2.66,3.24,4.12,7.54,4.12,12.09s-1.41,8.69-3.96,11.9c-3.03,3.8-7.45,5.9-12.46,5.9h-3.52c-3.12,0-5.63-2.55-5.41-5.66.2-2.74,2.48-4.9,5.26-4.9h3.67c2.39,0,4.17-1.21,5.14-3.49.7-1.66.74-3.41.74-3.75,0-5.49-3.38-7.45-6.55-7.45h-41.72c-1.57,0-2.57,1.68-1.82,3.06l17.93,33.41c1.8-.71,3.66-1.32,5.57-1.81,3.68-.94,7.54-1.44,11.51-1.44,10.08,0,19.67,3.17,27.74,9.17,7.79,5.8,13.69,14.07,16.61,23.29l.04.11h0c.04.15.09.29.13.42.1.42.16.84.16,1.27h-.03Z"/>
      <path class="st3" d="M-3106.29-54.42c0,.4-.05.81-.13,1.17h0c-.07.23-.15.47-.22.7-2.97,9.33-8.71,17.36-16.62,23.23-8.05,5.99-17.63,9.15-27.7,9.15-25.64,0-46.51-20.86-46.51-46.51,0-13.75,6-26.13,15.52-34.65l5.04,9.39c-6.36,6.53-10.28,15.44-10.28,25.26,0,19.97,16.25,36.23,36.23,36.23,7.88,0,15.37-2.49,21.67-7.19,6.09-4.55,10.67-11.03,12.92-18.23.02-.06.04-.12.06-.18l.02-.05s.02-.07.04-.12l.03-.07c.03-.07.05-.13.08-.2.07-.15.14-.3.23-.45.03-.07.08-.13.12-.2l.03-.05c.19-.29.39-.54.61-.78.06-.06.12-.12.18-.18.07-.06.13-.12.2-.18.47-.4,1.01-.72,1.59-.93.26-.09.52-.17.79-.22.06,0,.12-.02.19-.03.2-.03.41-.05.58-.05h.37c2.79.09,4.97,2.35,4.97,5.14h-.01Z"/>
    </g>
  </g>
  <rect class="st2" x="-3723.1" y="533.54" width="1147" height="222.09"/>
  <g class="st5">
    <text class="st6" transform="translate(-3479.95 686.29)"><tspan x="0" y="0">SAFE BIKE ROUTES</tspan></text>
  </g>
  <circle class="st3" cx="-2771.1" cy="644.59" r="12"/>
  <circle class="st3" cx="-3528.1" cy="644.59" r="12"/>
  <rect class="st4" width="216" height="197.43"/>
  <rect class="st2" y="189.51" width="216.01" height="26.49"/>
  <g class="st5">
    <g class="st5">
      <path class="st7" d="M70.47,198.8v2.44c0,.52.16.65.64.68l.72.04c1.28.09,1.67.7,1.67,1.75v2.29c0,.96-.42,1.72-1.67,1.72h-1.06c-1.26,0-1.68-.77-1.68-1.72v-.67c0-.3.07-.39.33-.45l.41-.09c.26-.06.35.01.35.3v1.19c0,.26.2.48.44.48h1.3c.23,0,.44-.22.44-.48v-2.62c0-.49-.15-.64-.64-.67l-.73-.03c-1.28-.07-1.67-.7-1.67-1.75v-2.13c0-.96.41-1.72,1.67-1.72h.77c1.26,0,1.67.77,1.67,1.72v.58c0,.3-.09.39-.33.45l-.41.09c-.26.06-.35-.01-.35-.3v-1.1c0-.26-.2-.48-.43-.48h-1c-.23,0-.43.22-.43.48Z"/>
      <path class="st7" d="M78.53,207.73c-.3,0-.39-.07-.44-.38l-.38-2.16h-1.99l-.38,2.16c-.04.3-.13.38-.43.38h-.35c-.29,0-.36-.09-.3-.36l1.94-9.64c.06-.29.15-.36.45-.36h.23c.3,0,.39.07.45.36l1.97,9.64c.06.28-.01.36-.3.36h-.48ZM76.75,199.48h-.03l-.83,4.77h1.67l-.81-4.77Z"/>
      <path class="st7" d="M81.63,207.35c0,.29-.09.38-.38.38h-.39c-.29,0-.38-.09-.38-.38v-9.61c0-.29.09-.38.38-.38h2.93c.29,0,.38.09.38.38v.2c0,.29-.09.38-.38.38h-2.16v3.67h1.38c.29,0,.38.09.38.38v.26c0,.29-.09.38-.38.38h-1.38v4.35Z"/>
      <path class="st7" d="M89.25,207.35c0,.29-.09.38-.38.38h-3.15c-.29,0-.38-.09-.38-.38v-9.61c0-.29.09-.38.38-.38h3.02c.29,0,.38.09.38.38v.2c0,.29-.09.38-.38.38h-2.25v3.67h1.38c.29,0,.38.09.38.38v.26c0,.29-.09.38-.38.38h-1.38v3.77h2.38c.29,0,.38.09.38.38v.2Z"/>
      <path class="st7" d="M96.77,206.01c0,.96-.41,1.72-1.68,1.72h-2.19c-.29,0-.38-.09-.38-.38v-9.61c0-.29.09-.38.38-.38h2.13c1.26,0,1.67.77,1.67,1.72v1.61c0,.67-.28,1.52-1.17,1.74v.03c.88.16,1.25.91,1.25,1.59v1.94ZM93.67,198.32v3.67h1.07c.51,0,.83-.36.83-.91v-2.28c0-.26-.19-.48-.42-.48h-1.48ZM95.6,206.29v-2.45c0-.55-.32-.91-.83-.91h-1.1v3.84h1.49c.25,0,.44-.22.44-.48Z"/>
      <path class="st7" d="M99.3,197.37c.29,0,.38.09.38.38v9.61c0,.29-.09.38-.38.38h-.39c-.29,0-.38-.09-.38-.38v-9.61c0-.29.09-.38.38-.38h.39Z"/>
      <path class="st7" d="M102.77,202.6h-.01v4.75c0,.29-.09.38-.38.38h-.39c-.29,0-.38-.09-.38-.38v-9.61c0-.29.09-.38.38-.38h.39c.29,0,.38.09.38.38v4.44h.01l1.83-4.46c.12-.28.22-.35.52-.35h.39c.28,0,.33.09.23.35l-1.93,4.55,2.3,5.12c.12.26.06.35-.22.35h-.52c-.3,0-.41-.07-.52-.35l-2.09-4.78Z"/>
      <path class="st7" d="M111.1,207.35c0,.29-.09.38-.38.38h-3.15c-.29,0-.38-.09-.38-.38v-9.61c0-.29.09-.38.38-.38h3.02c.29,0,.38.09.38.38v.2c0,.29-.09.38-.38.38h-2.25v3.67h1.38c.29,0,.38.09.38.38v.26c0,.29-.09.38-.38.38h-1.38v3.77h2.38c.29,0,.38.09.38.38v.2Z"/>
      <path class="st7" d="M114.38,197.74c0-.29.09-.38.38-.38h2.19c1.28,0,1.68.77,1.68,1.72v2.49c0,.9-.36,1.62-1.45,1.71l1.71,4.09c.1.26.04.35-.23.35h-.52c-.3,0-.41-.07-.52-.35l-1.61-4.09h-.48v4.06c0,.29-.09.38-.38.38h-.39c-.29,0-.38-.09-.38-.38v-9.61ZM115.52,198.32v4h1.54c.23,0,.42-.22.42-.48v-3.04c0-.26-.19-.48-.42-.48h-1.54Z"/>
      <path class="st7" d="M124.96,199.09v6.92c0,.96-.41,1.72-1.67,1.72h-1.33c-1.26,0-1.68-.77-1.68-1.72v-6.92c0-.96.42-1.72,1.68-1.72h1.33c1.26,0,1.67.77,1.67,1.72ZM123.81,206.77v-8.45h-2.39v8.45h2.39Z"/>
      <path class="st7" d="M126.8,197.74c0-.29.09-.38.38-.38h.39c.29,0,.38.09.38.38v9.03h2.09v-9.03c0-.29.09-.38.38-.38h.39c.29,0,.38.09.38.38v8.26c0,.96-.39,1.72-1.64,1.72h-1.06c-1.26,0-1.68-.77-1.68-1.72v-8.26Z"/>
      <path class="st7" d="M132.59,198.32c-.29,0-.38-.09-.38-.38v-.2c0-.29.09-.38.38-.38h3.57c.29,0,.38.09.38.38v.2c0,.29-.09.38-.38.38h-1.22v9.03c0,.29-.09.38-.38.38h-.39c-.29,0-.38-.09-.38-.38v-9.03h-1.2Z"/>
      <path class="st7" d="M141.5,207.35c0,.29-.09.38-.38.38h-3.15c-.29,0-.38-.09-.38-.38v-9.61c0-.29.09-.38.38-.38h3.01c.29,0,.38.09.38.38v.2c0,.29-.09.38-.38.38h-2.25v3.67h1.38c.29,0,.38.09.38.38v.26c0,.29-.09.38-.38.38h-1.38v3.77h2.38c.29,0,.38.09.38.38v.2Z"/>
      <path class="st7" d="M143.55,198.8v2.44c0,.52.16.65.64.68l.72.04c1.28.09,1.67.7,1.67,1.75v2.29c0,.96-.42,1.72-1.67,1.72h-1.06c-1.26,0-1.68-.77-1.68-1.72v-.67c0-.3.07-.39.33-.45l.41-.09c.26-.06.35.01.35.3v1.19c0,.26.2.48.44.48h1.3c.23,0,.44-.22.44-.48v-2.62c0-.49-.15-.64-.64-.67l-.73-.03c-1.28-.07-1.67-.7-1.67-1.75v-2.13c0-.96.41-1.72,1.67-1.72h.77c1.26,0,1.67.77,1.67,1.72v.58c0,.3-.09.39-.33.45l-.41.09c-.26.06-.35-.01-.35-.3v-1.1c0-.26-.2-.48-.43-.48h-1c-.23,0-.43.22-.43.48Z"/>
    </g>
  </g>
  <circle class="st3" cx="155.29" cy="202.76" r="1.43"/>
  <circle class="st3" cx="60.71" cy="202.76" r="1.43"/>
  <g>
    <path class="st1" d="M78.9,23.88v2.24h-4.48v-2.24c0-1.24,1-2.24,2.24-2.24s2.24,1,2.24,2.24Z"/>
    <path class="st1" d="M85.62,21.64h2.24v4.48h-2.24c-1.24,0-2.24-1-2.24-2.24s1-2.24,2.24-2.24Z"/>
    <path class="st1" d="M90.09,26.12h-2.24v-4.48h2.24c1.24,0,2.24,1,2.24,2.24s-1,2.24-2.24,2.24Z"/>
    <path class="st1" d="M99.05,21.64c1.24,0,2.24,1,2.24,2.24s-1,2.24-2.24,2.24-2.24-1-2.24-2.24,1-2.24,2.24-2.24Z"/>
    <path class="st1" d="M123.67,23.88v2.24h-4.48v-2.24c0-1.24,1-2.24,2.24-2.24s2.24,1,2.24,2.24Z"/>
    <path class="st1" d="M134.86,21.64c1.24,0,2.24,1,2.24,2.24s-1,2.24-2.24,2.24-2.24-1-2.24-2.24,1-2.24,2.24-2.24Z"/>
    <path class="st1" d="M143.81,21.64c1.24,0,2.24,1,2.24,2.24s-1,2.24-2.24,2.24-2.24-1-2.24-2.24,1-2.24,2.24-2.24Z"/>
    <path class="st1" d="M69.95,30.6h4.48v-4.48c-2.47,0-4.48,2-4.48,4.48Z"/>
    <path class="st1" d="M78.9,26.12h-4.48v4.48c2.47,0,4.48-2,4.48-4.48Z"/>
    <path class="st1" d="M96.81,28.36v2.24h-4.48v-2.24c0-1.24,1-2.24,2.24-2.24s2.24,1,2.24,2.24Z"/>
    <path class="st1" d="M110.24,28.36v2.24h-4.48v-2.24c0-1.24,1-2.24,2.24-2.24s2.24,1,2.24,2.24Z"/>
    <path class="st1" d="M116.95,26.12h2.24v4.48h-2.24c-1.24,0-2.24-1-2.24-2.24s1-2.24,2.24-2.24Z"/>
    <rect class="st1" x="119.19" y="26.12" width="4.48" height="4.48"/>
    <path class="st1" d="M132.62,28.36v2.24h-4.48v-2.24c0-1.24,1-2.24,2.24-2.24s2.24,1,2.24,2.24Z"/>
    <rect class="st1" x="69.95" y="30.6" width="4.48" height="4.48"/>
    <path class="st1" d="M90.09,30.6h2.24v4.48h-2.24c-1.24,0-2.24-1-2.24-2.24s1-2.24,2.24-2.24Z"/>
    <path class="st1" d="M96.81,30.6h-4.48v4.48c2.47,0,4.48-2,4.48-4.48Z"/>
    <path class="st1" d="M103.52,30.6h2.24v4.48h-2.24c-1.24,0-2.24-1-2.24-2.24s1-2.24,2.24-2.24Z"/>
    <rect class="st1" x="105.76" y="30.6" width="4.48" height="4.48"/>
    <path class="st1" d="M112.48,35.07h-2.24v-4.48h2.24c1.24,0,2.24,1,2.24,2.24s-1,2.24-2.24,2.24Z"/>
    <path class="st1" d="M119.19,32.84v-2.24h4.48v2.24c0,1.24-1,2.24-2.24,2.24s-2.24-1-2.24-2.24Z"/>
    <rect class="st1" x="128.15" y="30.6" width="4.48" height="4.48"/>
    <path class="st1" d="M146.05,32.84v2.24h-4.48v-2.24c0-1.24,1-2.24,2.24-2.24s2.24,1,2.24,2.24Z"/>
    <rect class="st1" x="69.95" y="35.07" width="4.48" height="4.48"/>
    <path class="st1" d="M81.14,35.07c1.24,0,2.24,1,2.24,2.24s-1,2.24-2.24,2.24-2.24-1-2.24-2.24,1-2.24,2.24-2.24Z"/>
    <rect class="st1" x="105.76" y="35.07" width="4.48" height="4.48"/>
    <path class="st1" d="M116.95,35.07c1.24,0,2.24,1,2.24,2.24s-1,2.24-2.24,2.24-2.24-1-2.24-2.24,1-2.24,2.24-2.24Z"/>
    <path class="st1" d="M132.62,39.55v-4.48h-4.48c0,2.47,2,4.48,4.48,4.48Z"/>
    <rect class="st1" x="132.62" y="35.07" width="4.48" height="4.48"/>
    <rect class="st1" x="137.1" y="35.07" width="4.48" height="4.48"/>
    <rect class="st1" x="141.58" y="35.07" width="4.48" height="4.48"/>
    <rect class="st1" x="69.95" y="39.55" width="4.48" height="4.48"/>
    <path class="st1" d="M96.81,41.79v2.24h-4.48v-2.24c0-1.24,1-2.24,2.24-2.24s2.24,1,2.24,2.24Z"/>
    <rect class="st1" x="105.76" y="39.55" width="4.48" height="4.48"/>
    <path class="st1" d="M125.91,39.55c1.24,0,2.24,1,2.24,2.24s-1,2.24-2.24,2.24-2.24-1-2.24-2.24,1-2.24,2.24-2.24Z"/>
    <rect class="st1" x="132.62" y="39.55" width="4.48" height="4.48"/>
    <rect class="st1" x="137.1" y="39.55" width="4.48" height="4.48"/>
    <rect class="st1" x="141.58" y="39.55" width="4.48" height="4.48"/>
    <rect class="st1" x="69.95" y="44.03" width="4.48" height="4.48"/>
    <path class="st1" d="M92.33,46.27v-2.24h4.48v2.24c0,1.24-1,2.24-2.24,2.24s-2.24-1-2.24-2.24Z"/>
    <path class="st1" d="M103.52,44.03h2.24v4.48h-2.24c-1.24,0-2.24-1-2.24-2.24s1-2.24,2.24-2.24Z"/>
    <rect class="st1" x="105.76" y="44.03" width="4.48" height="4.48"/>
    <rect class="st1" x="110.24" y="44.03" width="4.48" height="4.48"/>
    <rect class="st1" x="114.72" y="44.03" width="4.48" height="4.48"/>
    <path class="st1" d="M121.43,48.51h-2.24v-4.48h2.24c1.24,0,2.24,1,2.24,2.24s-1,2.24-2.24,2.24Z"/>
    <path class="st1" d="M130.38,44.03h2.24v4.48h-2.24c-1.24,0-2.24-1-2.24-2.24s1-2.24,2.24-2.24Z"/>
    <rect class="st1" x="132.62" y="44.03" width="4.48" height="4.48"/>
    <rect class="st1" x="141.58" y="44.03" width="4.48" height="4.48"/>
    <path class="st1" d="M69.95,50.74v-2.24h4.48v2.24c0,1.24-1,2.24-2.24,2.24s-2.24-1-2.24-2.24Z"/>
    <path class="st1" d="M83.38,50.74v2.24h-4.48v-2.24c0-1.24,1-2.24,2.24-2.24s2.24,1,2.24,2.24Z"/>
    <path class="st1" d="M92.33,50.74v2.24h-4.48v-2.24c0-1.24,1-2.24,2.24-2.24s2.24,1,2.24,2.24Z"/>
    <path class="st1" d="M101.28,50.74v2.24h-4.48v-2.24c0-1.24,1-2.24,2.24-2.24s2.24,1,2.24,2.24Z"/>
    <path class="st1" d="M105.76,50.74v-2.24h4.48v2.24c0,1.24-1,2.24-2.24,2.24s-2.24-1-2.24-2.24Z"/>
    <path class="st1" d="M114.72,50.74v-2.24h4.48v2.24c0,1.24-1,2.24-2.24,2.24s-2.24-1-2.24-2.24Z"/>
    <path class="st1" d="M125.91,48.51c1.24,0,2.24,1,2.24,2.24s-1,2.24-2.24,2.24-2.24-1-2.24-2.24,1-2.24,2.24-2.24Z"/>
    <rect class="st1" x="132.62" y="48.51" width="4.48" height="4.48"/>
    <path class="st1" d="M141.58,50.74v-2.24h4.48v2.24c0,1.24-1,2.24-2.24,2.24s-2.24-1-2.24-2.24h0Z"/>
    <path class="st1" d="M76.66,52.98h2.24v4.48h-2.24c-1.24,0-2.24-1-2.24-2.24s1-2.24,2.24-2.24Z"/>
    <path class="st1" d="M83.38,52.98h-4.48v4.48c2.47,0,4.48-2,4.48-4.48Z"/>
    <rect class="st1" x="87.85" y="52.98" width="4.48" height="4.48"/>
    <rect class="st1" x="92.33" y="52.98" width="4.48" height="4.48"/>
    <path class="st1" d="M101.28,52.98h-4.48v4.48c2.47,0,4.48-2,4.48-4.48Z"/>
    <path class="st1" d="M112.48,52.98c1.24,0,2.24,1,2.24,2.24s-1,2.24-2.24,2.24-2.24-1-2.24-2.24,1-2.24,2.24-2.24Z"/>
    <path class="st1" d="M121.43,52.98c1.24,0,2.24,1,2.24,2.24s-1,2.24-2.24,2.24-2.24-1-2.24-2.24,1-2.24,2.24-2.24Z"/>
    <path class="st1" d="M132.62,55.22v-2.24h4.48v2.24c0,1.24-1,2.24-2.24,2.24s-2.24-1-2.24-2.24h0Z"/>
    <path class="st1" d="M47.56,59.7v2.24h-4.48v-2.24c0-1.24,1-2.24,2.24-2.24s2.24,1,2.24,2.24Z"/>
    <path class="st1" d="M56.52,61.94h4.48v-4.48c-2.47,0-4.48,2-4.48,4.48Z"/>
    <rect class="st1" x="60.99" y="57.46" width="4.48" height="4.48"/>
    <rect class="st1" x="65.47" y="57.46" width="4.48" height="4.48"/>
    <path class="st1" d="M72.19,61.94h-2.24v-4.48h2.24c1.24,0,2.24,1,2.24,2.24s-1,2.24-2.24,2.24Z"/>
    <path class="st1" d="M92.33,61.94v-4.48h-4.48c0,2.47,2,4.48,4.48,4.48Z"/>
    <rect class="st1" x="92.33" y="57.46" width="4.48" height="4.48"/>
    <path class="st1" d="M137.1,61.94h4.48v-4.48c-2.47,0-4.48,2-4.48,4.48Z"/>
    <rect class="st1" x="141.58" y="57.46" width="4.48" height="4.48"/>
    <path class="st1" d="M146.05,57.46v4.48h4.48c0-2.47-2-4.48-4.48-4.48Z"/>
    <path class="st1" d="M155.01,61.94h4.48v-4.48c-2.47,0-4.48,2-4.48,4.48Z"/>
    <rect class="st1" x="159.48" y="57.46" width="4.48" height="4.48"/>
    <rect class="st1" x="163.96" y="57.46" width="4.48" height="4.48"/>
    <rect class="st1" x="168.44" y="57.46" width="4.48" height="4.48"/>
    <path class="st1" d="M172.91,57.46v4.48h4.48c0-2.47-2-4.48-4.48-4.48Z"/>
    <path class="st1" d="M36.37,61.94c1.24,0,2.24,1,2.24,2.24s-1,2.24-2.24,2.24-2.24-1-2.24-2.24,1-2.24,2.24-2.24Z"/>
    <rect class="st1" x="43.09" y="61.94" width="4.48" height="4.48"/>
    <path class="st1" d="M52.04,66.41h4.48v-4.48c-2.47,0-4.48,2-4.48,4.48Z"/>
    <rect class="st1" x="56.52" y="61.94" width="4.48" height="4.48"/>
    <path class="st1" d="M81.14,61.94h2.24v4.48h-2.24c-1.24,0-2.24-1-2.24-2.24s1-2.24,2.24-2.24Z"/>
    <path class="st1" d="M85.62,66.41h-2.24v-4.48h2.24c1.24,0,2.24,1,2.24,2.24s-1,2.24-2.24,2.24Z"/>
    <path class="st1" d="M96.81,66.41v-4.48h-4.48c0,2.47,2,4.48,4.48,4.48Z"/>
    <rect class="st1" x="96.81" y="61.94" width="4.48" height="4.48"/>
    <path class="st1" d="M103.52,66.41h-2.24v-4.48h2.24c1.24,0,2.24,1,2.24,2.24s-1,2.24-2.24,2.24Z"/>
    <path class="st1" d="M123.67,66.41h4.48v-4.48c-2.47,0-4.48,2-4.48,4.48Z"/>
    <path class="st1" d="M130.38,66.41h-2.24v-4.48h2.24c1.24,0,2.24,1,2.24,2.24s-1,2.24-2.24,2.24Z"/>
    <rect class="st1" x="137.1" y="61.94" width="4.48" height="4.48"/>
    <rect class="st1" x="141.58" y="61.94" width="4.48" height="4.48"/>
    <rect class="st1" x="146.05" y="61.94" width="4.48" height="4.48"/>
    <rect class="st1" x="150.53" y="61.94" width="4.48" height="4.48"/>
    <rect class="st1" x="155.01" y="61.94" width="4.48" height="4.48"/>
    <rect class="st1" x="168.44" y="61.94" width="4.48" height="4.48"/>
    <rect class="st1" x="172.91" y="61.94" width="4.48" height="4.48"/>
    <path class="st1" d="M177.39,61.94v4.48h4.48c0-2.47-2-4.48-4.48-4.48Z"/>
    <path class="st1" d="M47.56,70.89v-4.48h-4.48c0,2.47,2,4.48,4.48,4.48Z"/>
    <rect class="st1" x="47.56" y="66.41" width="4.48" height="4.48"/>
    <rect class="st1" x="52.04" y="66.41" width="4.48" height="4.48"/>
    <rect class="st1" x="56.52" y="66.41" width="4.48" height="4.48"/>
    <path class="st1" d="M63.23,70.89h-2.24v-4.48h2.24c1.24,0,2.24,1,2.24,2.24s-1,2.24-2.24,2.24Z"/>
    <path class="st1" d="M78.9,68.65v2.24h-4.48v-2.24c0-1.24,1-2.24,2.24-2.24s2.24,1,2.24,2.24Z"/>
    <path class="st1" d="M90.09,66.41c1.24,0,2.24,1,2.24,2.24s-1,2.24-2.24,2.24-2.24-1-2.24-2.24,1-2.24,2.24-2.24Z"/>
    <path class="st1" d="M114.72,68.65v2.24h-4.48v-2.24c0-1.24,1-2.24,2.24-2.24s2.24,1,2.24,2.24Z"/>
    <path class="st1" d="M119.19,70.89h4.48v-4.48c-2.47,0-4.48,2-4.48,4.48Z"/>
    <path class="st1" d="M128.15,66.41h-4.48v4.48c2.47,0,4.48-2,4.48-4.48Z"/>
    <rect class="st1" x="137.1" y="66.41" width="4.48" height="4.48"/>
    <rect class="st1" x="155.01" y="66.41" width="4.48" height="4.48"/>
    <rect class="st1" x="159.48" y="66.41" width="4.48" height="4.48"/>
    <rect class="st1" x="163.96" y="66.41" width="4.48" height="4.48"/>
    <path class="st1" d="M172.91,66.41h-4.48v4.48c2.47,0,4.48-2,4.48-4.48Z"/>
    <rect class="st1" x="177.39" y="66.41" width="4.48" height="4.48"/>
    <path class="st1" d="M36.37,70.89h2.24v4.48h-2.24c-1.24,0-2.24-1-2.24-2.24s1-2.24,2.24-2.24Z"/>
    <path class="st1" d="M40.85,75.37h-2.24v-4.48h2.24c1.24,0,2.24,1,2.24,2.24s-1,2.24-2.24,2.24Z"/>
    <rect class="st1" x="56.52" y="70.89" width="4.48" height="4.48"/>
    <path class="st1" d="M67.71,70.89c1.24,0,2.24,1,2.24,2.24s-1,2.24-2.24,2.24-2.24-1-2.24-2.24,1-2.24,2.24-2.24Z"/>
    <rect class="st1" x="74.42" y="70.89" width="4.48" height="4.48"/>
    <path class="st1" d="M81.14,75.37h-2.24v-4.48h2.24c1.24,0,2.24,1,2.24,2.24s-1,2.24-2.24,2.24Z"/>
    <path class="st1" d="M94.57,70.89c1.24,0,2.24,1,2.24,2.24s-1,2.24-2.24,2.24-2.24-1-2.24-2.24,1-2.24,2.24-2.24Z"/>
    <path class="st1" d="M110.24,73.13v-2.24h4.48v2.24c0,1.24-1,2.24-2.24,2.24s-2.24-1-2.24-2.24Z"/>
    <rect class="st1" x="119.19" y="70.89" width="4.48" height="4.48"/>
    <path class="st1" d="M132.62,73.13v2.24h-4.48v-2.24c0-1.24,1-2.24,2.24-2.24s2.24,1,2.24,2.24Z"/>
    <rect class="st1" x="137.1" y="70.89" width="4.48" height="4.48"/>
    <path class="st1" d="M150.53,75.37h4.48v-4.48c-2.47,0-4.48,2-4.48,4.48Z"/>
    <rect class="st1" x="155.01" y="70.89" width="4.48" height="4.48"/>
    <rect class="st1" x="163.96" y="70.89" width="4.48" height="4.48"/>
    <path class="st1" d="M175.15,70.89h2.24v4.48h-2.24c-1.24,0-2.24-1-2.24-2.24s1-2.24,2.24-2.24Z"/>
    <rect class="st1" x="177.39" y="70.89" width="4.48" height="4.48"/>
    <path class="st1" d="M47.56,77.6v2.24h-4.48v-2.24c0-1.24,1-2.24,2.24-2.24s2.24,1,2.24,2.24Z"/>
    <path class="st1" d="M54.28,75.37h2.24v4.48h-2.24c-1.24,0-2.24-1-2.24-2.24s1-2.24,2.24-2.24Z"/>
    <rect class="st1" x="56.52" y="75.37" width="4.48" height="4.48"/>
    <path class="st1" d="M63.23,79.84h-2.24v-4.48h2.24c1.24,0,2.24,1,2.24,2.24s-1,2.24-2.24,2.24Z"/>
    <path class="st1" d="M69.95,79.84h4.48v-4.48c-2.47,0-4.48,2-4.48,4.48Z"/>
    <path class="st1" d="M78.9,75.37h-4.48v4.48c2.47,0,4.48-2,4.48-4.48Z"/>
    <path class="st1" d="M85.62,75.37c1.24,0,2.24,1,2.24,2.24s-1,2.24-2.24,2.24-2.24-1-2.24-2.24,1-2.24,2.24-2.24Z"/>
    <path class="st1" d="M96.81,79.84h4.48v-4.48c-2.47,0-4.48,2-4.48,4.48Z"/>
    <path class="st1" d="M101.28,75.37v4.48h4.48c0-2.47-2-4.48-4.48-4.48Z"/>
    <path class="st1" d="M116.95,75.37h2.24v4.48h-2.24c-1.24,0-2.24-1-2.24-2.24s1-2.24,2.24-2.24Z"/>
    <rect class="st1" x="119.19" y="75.37" width="4.48" height="4.48"/>
    <rect class="st1" x="123.67" y="75.37" width="4.48" height="4.48"/>
    <rect class="st1" x="128.15" y="75.37" width="4.48" height="4.48"/>
    <rect class="st1" x="137.1" y="75.37" width="4.48" height="4.48"/>
    <path class="st1" d="M141.58,75.37v4.48h4.48c0-2.47-2-4.48-4.48-4.48Z"/>
    <rect class="st1" x="150.53" y="75.37" width="4.48" height="4.48"/>
    <rect class="st1" x="155.01" y="75.37" width="4.48" height="4.48"/>
    <rect class="st1" x="159.48" y="75.37" width="4.48" height="4.48"/>
    <rect class="st1" x="163.96" y="75.37" width="4.48" height="4.48"/>
    <rect class="st1" x="177.39" y="75.37" width="4.48" height="4.48"/>
    <path class="st1" d="M36.37,79.84c1.24,0,2.24,1,2.24,2.24s-1,2.24-2.24,2.24-2.24-1-2.24-2.24,1-2.24,2.24-2.24Z"/>
    <rect class="st1" x="43.09" y="79.84" width="4.48" height="4.48"/>
    <path class="st1" d="M47.56,79.84v4.48h4.48c0-2.47-2-4.48-4.48-4.48Z"/>
    <path class="st1" d="M67.71,79.84h2.24v4.48h-2.24c-1.24,0-2.24-1-2.24-2.24s1-2.24,2.24-2.24Z"/>
    <rect class="st1" x="69.95" y="79.84" width="4.48" height="4.48"/>
    <path class="st1" d="M83.38,82.08v2.24h-4.48v-2.24c0-1.24,1-2.24,2.24-2.24s2.24,1,2.24,2.24Z"/>
    <path class="st1" d="M90.09,79.84c1.24,0,2.24,1,2.24,2.24s-1,2.24-2.24,2.24-2.24-1-2.24-2.24,1-2.24,2.24-2.24Z"/>
    <path class="st1" d="M101.28,84.32v-4.48h-4.48c0,2.47,2,4.48,4.48,4.48Z"/>
    <rect class="st1" x="101.28" y="79.84" width="4.48" height="4.48"/>
    <rect class="st1" x="105.76" y="79.84" width="4.48" height="4.48"/>
    <path class="st1" d="M110.24,79.84v4.48h4.48c0-2.47-2-4.48-4.48-4.48Z"/>
    <path class="st1" d="M128.15,82.08v-2.24h4.48v2.24c0,1.24-1,2.24-2.24,2.24s-2.24-1-2.24-2.24h0Z"/>
    <rect class="st1" x="137.1" y="79.84" width="4.48" height="4.48"/>
    <path class="st1" d="M146.05,79.84h-4.48v4.48c2.47,0,4.48-2,4.48-4.48Z"/>
    <rect class="st1" x="150.53" y="79.84" width="4.48" height="4.48"/>
    <rect class="st1" x="155.01" y="79.84" width="4.48" height="4.48"/>
    <rect class="st1" x="159.48" y="79.84" width="4.48" height="4.48"/>
    <rect class="st1" x="163.96" y="79.84" width="4.48" height="4.48"/>
    <path class="st1" d="M170.68,84.32h-2.24v-4.48h2.24c1.24,0,2.24,1,2.24,2.24s-1,2.24-2.24,2.24Z"/>
    <rect class="st1" x="177.39" y="79.84" width="4.48" height="4.48"/>
    <rect class="st1" x="43.09" y="84.32" width="4.48" height="4.48"/>
    <rect class="st1" x="47.56" y="84.32" width="4.48" height="4.48"/>
    <path class="st1" d="M63.23,84.32c1.24,0,2.24,1,2.24,2.24s-1,2.24-2.24,2.24-2.24-1-2.24-2.24,1-2.24,2.24-2.24Z"/>
    <rect class="st1" x="69.95" y="84.32" width="4.48" height="4.48"/>
    <rect class="st1" x="74.42" y="84.32" width="4.48" height="4.48"/>
    <rect class="st1" x="78.9" y="84.32" width="4.48" height="4.48"/>
    <path class="st1" d="M85.62,88.8h-2.24v-4.48h2.24c1.24,0,2.24,1,2.24,2.24s-1,2.24-2.24,2.24Z"/>
    <rect class="st1" x="101.28" y="84.32" width="4.48" height="4.48"/>
    <path class="st1" d="M110.24,86.56v-2.24h4.48v2.24c0,1.24-1,2.24-2.24,2.24s-2.24-1-2.24-2.24Z"/>
    <path class="st1" d="M123.67,86.56v2.24h-4.48v-2.24c0-1.24,1-2.24,2.24-2.24s2.24,1,2.24,2.24Z"/>
    <path class="st1" d="M137.1,86.56v-2.24h4.48v2.24c0,1.24-1,2.24-2.24,2.24s-2.24-1-2.24-2.24h0Z"/>
    <path class="st1" d="M155.01,88.8v-4.48h-4.48c0,2.47,2,4.48,4.48,4.48Z"/>
    <rect class="st1" x="155.01" y="84.32" width="4.48" height="4.48"/>
    <rect class="st1" x="163.96" y="84.32" width="4.48" height="4.48"/>
    <rect class="st1" x="177.39" y="84.32" width="4.48" height="4.48"/>
    <path class="st1" d="M36.37,88.8c1.24,0,2.24,1,2.24,2.24s-1,2.24-2.24,2.24-2.24-1-2.24-2.24,1-2.24,2.24-2.24Z"/>
    <path class="st1" d="M47.56,93.27v-4.48h-4.48c0,2.47,2,4.48,4.48,4.48Z"/>
    <rect class="st1" x="47.56" y="88.8" width="4.48" height="4.48"/>
    <path class="st1" d="M52.04,88.8v4.48h4.48c0-2.47-2-4.48-4.48-4.48Z"/>
    <path class="st1" d="M67.71,88.8h2.24v4.48h-2.24c-1.24,0-2.24-1-2.24-2.24s1-2.24,2.24-2.24Z"/>
    <rect class="st1" x="69.95" y="88.8" width="4.48" height="4.48"/>
    <rect class="st1" x="78.9" y="88.8" width="4.48" height="4.48"/>
    <path class="st1" d="M94.57,88.8h2.24v4.48h-2.24c-1.24,0-2.24-1-2.24-2.24s1-2.24,2.24-2.24Z"/>
    <rect class="st1" x="96.81" y="88.8" width="4.48" height="4.48"/>
    <rect class="st1" x="101.28" y="88.8" width="4.48" height="4.48"/>
    <rect class="st1" x="119.19" y="88.8" width="4.48" height="4.48"/>
    <path class="st1" d="M123.67,88.8v4.48h4.48c0-2.47-2-4.48-4.48-4.48Z"/>
    <path class="st1" d="M137.1,91.04v2.24h-4.48v-2.24c0-1.24,1-2.24,2.24-2.24s2.24,1,2.24,2.24Z"/>
    <path class="st1" d="M159.48,93.27v-4.48h-4.48c0,2.47,2,4.48,4.48,4.48Z"/>
    <rect class="st1" x="159.48" y="88.8" width="4.48" height="4.48"/>
    <rect class="st1" x="163.96" y="88.8" width="4.48" height="4.48"/>
    <path class="st1" d="M168.44,88.8v4.48h4.48c0-2.47-2-4.48-4.48-4.48Z"/>
    <path class="st1" d="M177.39,91.04v-2.24h4.48v2.24c0,1.24-1,2.24-2.24,2.24s-2.24-1-2.24-2.24h0Z"/>
    <path class="st1" d="M40.85,93.27c1.24,0,2.24,1,2.24,2.24s-1,2.24-2.24,2.24-2.24-1-2.24-2.24,1-2.24,2.24-2.24Z"/>
    <rect class="st1" x="52.04" y="93.27" width="4.48" height="4.48"/>
    <rect class="st1" x="56.52" y="93.27" width="4.48" height="4.48"/>
    <path class="st1" d="M63.23,97.75h-2.24v-4.48h2.24c1.24,0,2.24,1,2.24,2.24s-1,2.24-2.24,2.24Z"/>
    <rect class="st1" x="69.95" y="93.27" width="4.48" height="4.48"/>
    <rect class="st1" x="74.42" y="93.27" width="4.48" height="4.48"/>
    <rect class="st1" x="78.9" y="93.27" width="4.48" height="4.48"/>
    <rect class="st1" x="83.38" y="93.27" width="4.48" height="4.48"/>
    <path class="st1" d="M90.09,97.75h-2.24v-4.48h2.24c1.24,0,2.24,1,2.24,2.24s-1,2.24-2.24,2.24Z"/>
    <rect class="st1" x="101.28" y="93.27" width="4.48" height="4.48"/>
    <path class="st1" d="M114.72,97.75h4.48v-4.48c-2.47,0-4.48,2-4.48,4.48Z"/>
    <rect class="st1" x="119.19" y="93.27" width="4.48" height="4.48"/>
    <rect class="st1" x="123.67" y="93.27" width="4.48" height="4.48"/>
    <path class="st1" d="M132.62,95.51v-2.24h4.48v2.24c0,1.24-1,2.24-2.24,2.24s-2.24-1-2.24-2.24h0Z"/>
    <path class="st1" d="M148.29,93.27h2.24v4.48h-2.24c-1.24,0-2.24-1-2.24-2.24s1-2.24,2.24-2.24Z"/>
    <path class="st1" d="M150.53,93.27v4.48h4.48c0-2.47-2-4.48-4.48-4.48Z"/>
    <path class="st1" d="M168.44,97.75v-4.48h-4.48c0,2.47,2,4.48,4.48,4.48Z"/>
    <rect class="st1" x="168.44" y="93.27" width="4.48" height="4.48"/>
    <path class="st1" d="M175.15,97.75h-2.24v-4.48h2.24c1.24,0,2.24,1,2.24,2.24s-1,2.24-2.24,2.24Z"/>
    <path class="st1" d="M36.37,97.75c1.24,0,2.24,1,2.24,2.24s-1,2.24-2.24,2.24-2.24-1-2.24-2.24,1-2.24,2.24-2.24Z"/>
    <path class="st1" d="M45.32,97.75h2.24v4.48h-2.24c-1.24,0-2.24-1-2.24-2.24s1-2.24,2.24-2.24Z"/>
    <rect class="st1" x="47.56" y="97.75" width="4.48" height="4.48"/>
    <rect class="st1" x="52.04" y="97.75" width="4.48" height="4.48"/>
    <path class="st1" d="M69.95,99.99v-2.24h4.48v2.24c0,1.24-1,2.24-2.24,2.24s-2.24-1-2.24-2.24Z"/>
    <path class="st1" d="M78.9,99.99v-2.24h4.48v2.24c0,1.24-1,2.24-2.24,2.24s-2.24-1-2.24-2.24Z"/>
    <path class="st1" d="M105.76,102.23v-4.48h-4.48c0,2.47,2,4.48,4.48,4.48Z"/>
    <rect class="st1" x="105.76" y="97.75" width="4.48" height="4.48"/>
    <rect class="st1" x="110.24" y="97.75" width="4.48" height="4.48"/>
    <rect class="st1" x="114.72" y="97.75" width="4.48" height="4.48"/>
    <rect class="st1" x="119.19" y="97.75" width="4.48" height="4.48"/>
    <rect class="st1" x="123.67" y="97.75" width="4.48" height="4.48"/>
    <path class="st1" d="M141.58,99.99v2.24h-4.48v-2.24c0-1.24,1-2.24,2.24-2.24s2.24,1,2.24,2.24Z"/>
    <rect class="st1" x="150.53" y="97.75" width="4.48" height="4.48"/>
    <path class="st1" d="M155.01,97.75v4.48h4.48c0-2.47-2-4.48-4.48-4.48Z"/>
    <rect class="st1" x="168.44" y="97.75" width="4.48" height="4.48"/>
    <path class="st1" d="M52.04,106.7v-4.48h-4.48c0,2.47,2,4.48,4.48,4.48Z"/>
    <path class="st1" d="M56.52,102.23h-4.48v4.48c2.47,0,4.48-2,4.48-4.48Z"/>
    <path class="st1" d="M63.23,102.23h2.24v4.48h-2.24c-1.24,0-2.24-1-2.24-2.24s1-2.24,2.24-2.24Z"/>
    <path class="st1" d="M67.71,106.7h-2.24v-4.48h2.24c1.24,0,2.24,1,2.24,2.24s-1,2.24-2.24,2.24Z"/>
    <path class="st1" d="M76.66,102.23c1.24,0,2.24,1,2.24,2.24s-1,2.24-2.24,2.24-2.24-1-2.24-2.24,1-2.24,2.24-2.24Z"/>
    <path class="st1" d="M92.33,106.7h4.48v-4.48c-2.47,0-4.48,2-4.48,4.48Z"/>
    <path class="st1" d="M96.81,102.23v4.48h4.48c0-2.47-2-4.48-4.48-4.48Z"/>
    <rect class="st1" x="105.76" y="102.23" width="4.48" height="4.48"/>
    <rect class="st1" x="123.67" y="102.23" width="4.48" height="4.48"/>
    <path class="st1" d="M130.38,106.7h-2.24v-4.48h2.24c1.24,0,2.24,1,2.24,2.24s-1,2.24-2.24,2.24Z"/>
    <rect class="st1" x="137.1" y="102.23" width="4.48" height="4.48"/>
    <path class="st1" d="M146.05,106.7h4.48v-4.48c-2.47,0-4.48,2-4.48,4.48Z"/>
    <rect class="st1" x="150.53" y="102.23" width="4.48" height="4.48"/>
    <rect class="st1" x="155.01" y="102.23" width="4.48" height="4.48"/>
    <rect class="st1" x="159.48" y="102.23" width="4.48" height="4.48"/>
    <rect class="st1" x="163.96" y="102.23" width="4.48" height="4.48"/>
    <rect class="st1" x="168.44" y="102.23" width="4.48" height="4.48"/>
    <rect class="st1" x="172.91" y="102.23" width="4.48" height="4.48"/>
    <path class="st1" d="M177.39,102.23v4.48h4.48c0-2.47-2-4.48-4.48-4.48Z"/>
    <path class="st1" d="M60.99,108.94v2.24h-4.48v-2.24c0-1.24,1-2.24,2.24-2.24s2.24,1,2.24,2.24Z"/>
    <path class="st1" d="M83.38,108.94v2.24h-4.48v-2.24c0-1.24,1-2.24,2.24-2.24s2.24,1,2.24,2.24Z"/>
    <path class="st1" d="M96.81,111.18v-4.48h-4.48c0,2.47,2,4.48,4.48,4.48Z"/>
    <rect class="st1" x="96.81" y="106.7" width="4.48" height="4.48"/>
    <rect class="st1" x="105.76" y="106.7" width="4.48" height="4.48"/>
    <rect class="st1" x="110.24" y="106.7" width="4.48" height="4.48"/>
    <path class="st1" d="M116.95,111.18h-2.24v-4.48h2.24c1.24,0,2.24,1,2.24,2.24s-1,2.24-2.24,2.24Z"/>
    <path class="st1" d="M123.67,108.94v-2.24h4.48v2.24c0,1.24-1,2.24-2.24,2.24s-2.24-1-2.24-2.24Z"/>
    <path class="st1" d="M134.86,106.7h2.24v4.48h-2.24c-1.24,0-2.24-1-2.24-2.24s1-2.24,2.24-2.24Z"/>
    <rect class="st1" x="137.1" y="106.7" width="4.48" height="4.48"/>
    <rect class="st1" x="146.05" y="106.7" width="4.48" height="4.48"/>
    <rect class="st1" x="155.01" y="106.7" width="4.48" height="4.48"/>
    <path class="st1" d="M163.96,108.94v-2.24h4.48v2.24c0,1.24-1,2.24-2.24,2.24s-2.24-1-2.24-2.24h0Z"/>
    <path class="st1" d="M177.39,111.18v-4.48h-4.48c0,2.47,2,4.48,4.48,4.48Z"/>
    <path class="st1" d="M181.87,106.7h-4.48v4.48c2.47,0,4.48-2,4.48-4.48Z"/>
    <path class="st1" d="M40.85,111.18c1.24,0,2.24,1,2.24,2.24s-1,2.24-2.24,2.24-2.24-1-2.24-2.24,1-2.24,2.24-2.24Z"/>
    <path class="st1" d="M52.04,113.42v2.24h-4.48v-2.24c0-1.24,1-2.24,2.24-2.24s2.24,1,2.24,2.24Z"/>
    <path class="st1" d="M60.99,115.66v-4.48h-4.48c0,2.47,2,4.48,4.48,4.48Z"/>
    <rect class="st1" x="60.99" y="111.18" width="4.48" height="4.48"/>
    <path class="st1" d="M67.71,115.66h-2.24v-4.48h2.24c1.24,0,2.24,1,2.24,2.24s-1,2.24-2.24,2.24Z"/>
    <rect class="st1" x="78.9" y="111.18" width="4.48" height="4.48"/>
    <rect class="st1" x="96.81" y="111.18" width="4.48" height="4.48"/>
    <path class="st1" d="M110.24,115.66v-4.48h-4.48c0,2.47,2,4.48,4.48,4.48Z"/>
    <path class="st1" d="M114.72,111.18h-4.48v4.48c2.47,0,4.48-2,4.48-4.48Z"/>
    <path class="st1" d="M123.67,113.42v2.24h-4.48v-2.24c0-1.24,1-2.24,2.24-2.24s2.24,1,2.24,2.24Z"/>
    <path class="st1" d="M141.58,115.66v-4.48h-4.48c0,2.47,2,4.48,4.48,4.48Z"/>
    <rect class="st1" x="141.58" y="111.18" width="4.48" height="4.48"/>
    <rect class="st1" x="146.05" y="111.18" width="4.48" height="4.48"/>
    <rect class="st1" x="150.53" y="111.18" width="4.48" height="4.48"/>
    <path class="st1" d="M159.48,111.18h-4.48v4.48c2.47,0,4.48-2,4.48-4.48Z"/>
    <path class="st1" d="M45.32,115.66h2.24v4.48h-2.24c-1.24,0-2.24-1-2.24-2.24s1-2.24,2.24-2.24Z"/>
    <path class="st1" d="M52.04,115.66h-4.48v4.48c2.47,0,4.48-2,4.48-4.48Z"/>
    <path class="st1" d="M74.42,117.9v2.24h-4.48v-2.24c0-1.24,1-2.24,2.24-2.24s2.24,1,2.24,2.24Z"/>
    <rect class="st1" x="78.9" y="115.66" width="4.48" height="4.48"/>
    <path class="st1" d="M90.09,115.66c1.24,0,2.24,1,2.24,2.24s-1,2.24-2.24,2.24-2.24-1-2.24-2.24,1-2.24,2.24-2.24Z"/>
    <rect class="st1" x="96.81" y="115.66" width="4.48" height="4.48"/>
    <path class="st1" d="M123.67,120.13v-4.48h-4.48c0,2.47,2,4.48,4.48,4.48Z"/>
    <rect class="st1" x="123.67" y="115.66" width="4.48" height="4.48"/>
    <path class="st1" d="M128.15,115.66v4.48h4.48c0-2.47-2-4.48-4.48-4.48Z"/>
    <rect class="st1" x="141.58" y="115.66" width="4.48" height="4.48"/>
    <rect class="st1" x="146.05" y="115.66" width="4.48" height="4.48"/>
    <path class="st1" d="M166.2,115.66c1.24,0,2.24,1,2.24,2.24s-1,2.24-2.24,2.24-2.24-1-2.24-2.24,1-2.24,2.24-2.24Z"/>
    <path class="st1" d="M181.87,117.9v2.24h-4.48v-2.24c0-1.24,1-2.24,2.24-2.24s2.24,1,2.24,2.24Z"/>
    <path class="st1" d="M36.37,120.13h2.24v4.48h-2.24c-1.24,0-2.24-1-2.24-2.24s1-2.24,2.24-2.24Z"/>
    <path class="st1" d="M40.85,124.61h-2.24v-4.48h2.24c1.24,0,2.24,1,2.24,2.24s-1,2.24-2.24,2.24Z"/>
    <path class="st1" d="M58.75,120.13h2.24v4.48h-2.24c-1.24,0-2.24-1-2.24-2.24s1-2.24,2.24-2.24Z"/>
    <path class="st1" d="M63.23,124.61h-2.24v-4.48h2.24c1.24,0,2.24,1,2.24,2.24s-1,2.24-2.24,2.24Z"/>
    <rect class="st1" x="69.95" y="120.13" width="4.48" height="4.48"/>
    <path class="st1" d="M83.38,124.61v-4.48h-4.48c0,2.47,2,4.48,4.48,4.48Z"/>
    <path class="st1" d="M85.62,124.61h-2.24v-4.48h2.24c1.24,0,2.24,1,2.24,2.24s-1,2.24-2.24,2.24Z"/>
    <rect class="st1" x="96.81" y="120.13" width="4.48" height="4.48"/>
    <path class="st1" d="M103.52,124.61h-2.24v-4.48h2.24c1.24,0,2.24,1,2.24,2.24s-1,2.24-2.24,2.24Z"/>
    <path class="st1" d="M128.15,122.37v-2.24h4.48v2.24c0,1.24-1,2.24-2.24,2.24s-2.24-1-2.24-2.24h0Z"/>
    <rect class="st1" x="141.58" y="120.13" width="4.48" height="4.48"/>
    <rect class="st1" x="146.05" y="120.13" width="4.48" height="4.48"/>
    <path class="st1" d="M152.77,124.61h-2.24v-4.48h2.24c1.24,0,2.24,1,2.24,2.24s-1,2.24-2.24,2.24Z"/>
    <rect class="st1" x="177.39" y="120.13" width="4.48" height="4.48"/>
    <path class="st1" d="M45.32,124.61c1.24,0,2.24,1,2.24,2.24s-1,2.24-2.24,2.24-2.24-1-2.24-2.24,1-2.24,2.24-2.24Z"/>
    <path class="st1" d="M54.28,124.61c1.24,0,2.24,1,2.24,2.24s-1,2.24-2.24,2.24-2.24-1-2.24-2.24,1-2.24,2.24-2.24Z"/>
    <path class="st1" d="M74.42,129.09v-4.48h-4.48c0,2.47,2,4.48,4.48,4.48Z"/>
    <path class="st1" d="M74.42,124.61v4.48h4.48c0-2.47-2-4.48-4.48-4.48Z"/>
    <path class="st1" d="M90.09,124.61h2.24v4.48h-2.24c-1.24,0-2.24-1-2.24-2.24s1-2.24,2.24-2.24Z"/>
    <rect class="st1" x="92.33" y="124.61" width="4.48" height="4.48"/>
    <path class="st1" d="M101.28,124.61h-4.48v4.48c2.47,0,4.48-2,4.48-4.48Z"/>
    <path class="st1" d="M105.76,129.09h4.48v-4.48c-2.47,0-4.48,2-4.48,4.48Z"/>
    <rect class="st1" x="110.24" y="124.61" width="4.48" height="4.48"/>
    <rect class="st1" x="114.72" y="124.61" width="4.48" height="4.48"/>
    <path class="st1" d="M121.43,129.09h-2.24v-4.48h2.24c1.24,0,2.24,1,2.24,2.24s-1,2.24-2.24,2.24Z"/>
    <path class="st1" d="M132.62,129.09h4.48v-4.48c-2.47,0-4.48,2-4.48,4.48Z"/>
    <rect class="st1" x="137.1" y="124.61" width="4.48" height="4.48"/>
    <rect class="st1" x="141.58" y="124.61" width="4.48" height="4.48"/>
    <path class="st1" d="M159.48,126.85v2.24h-4.48v-2.24c0-1.24,1-2.24,2.24-2.24s2.24,1,2.24,2.24Z"/>
    <path class="st1" d="M166.2,124.61c1.24,0,2.24,1,2.24,2.24s-1,2.24-2.24,2.24-2.24-1-2.24-2.24,1-2.24,2.24-2.24Z"/>
    <path class="st1" d="M172.91,129.09h4.48v-4.48c-2.47,0-4.48,2-4.48,4.48Z"/>
    <rect class="st1" x="177.39" y="124.61" width="4.48" height="4.48"/>
    <path class="st1" d="M36.37,129.09h2.24v4.48h-2.24c-1.24,0-2.24-1-2.24-2.24s1-2.24,2.24-2.24h0Z"/>
    <path class="st1" d="M40.85,133.57h-2.24v-4.48h2.24c1.24,0,2.24,1,2.24,2.24s-1,2.24-2.24,2.24h0Z"/>
    <path class="st1" d="M63.23,129.09c1.24,0,2.24,1,2.24,2.24s-1,2.24-2.24,2.24-2.24-1-2.24-2.24,1-2.24,2.24-2.24Z"/>
    <path class="st1" d="M74.42,131.33v-2.24h4.48v2.24c0,1.24-1,2.24-2.24,2.24s-2.24-1-2.24-2.24Z"/>
    <path class="st1" d="M92.33,131.33v-2.24h4.48v2.24c0,1.24-1,2.24-2.24,2.24s-2.24-1-2.24-2.24Z"/>
    <path class="st1" d="M101.28,133.57h4.48v-4.48c-2.47,0-4.48,2-4.48,4.48Z"/>
    <rect class="st1" x="105.76" y="129.09" width="4.48" height="4.48"/>
    <rect class="st1" x="110.24" y="129.09" width="4.48" height="4.48"/>
    <path class="st1" d="M125.91,129.09c1.24,0,2.24,1,2.24,2.24s-1,2.24-2.24,2.24-2.24-1-2.24-2.24,1-2.24,2.24-2.24Z"/>
    <path class="st1" d="M132.62,131.33v-2.24h4.48v2.24c0,1.24-1,2.24-2.24,2.24s-2.24-1-2.24-2.24h0Z"/>
    <rect class="st1" x="141.58" y="129.09" width="4.48" height="4.48"/>
    <rect class="st1" x="146.05" y="129.09" width="4.48" height="4.48"/>
    <rect class="st1" x="150.53" y="129.09" width="4.48" height="4.48"/>
    <rect class="st1" x="155.01" y="129.09" width="4.48" height="4.48"/>
    <path class="st1" d="M159.48,129.09v4.48h4.48c0-2.47-2-4.48-4.48-4.48Z"/>
    <rect class="st1" x="172.91" y="129.09" width="4.48" height="4.48"/>
    <rect class="st1" x="177.39" y="129.09" width="4.48" height="4.48"/>
    <path class="st1" d="M74.42,135.8v2.24h-4.48v-2.24c0-1.24,1-2.24,2.24-2.24s2.24,1,2.24,2.24Z"/>
    <path class="st1" d="M78.9,138.04h4.48v-4.48c-2.47,0-4.48,2-4.48,4.48Z"/>
    <rect class="st1" x="83.38" y="133.57" width="4.48" height="4.48"/>
    <path class="st1" d="M87.85,133.57v4.48h4.48c0-2.47-2-4.48-4.48-4.48Z"/>
    <path class="st1" d="M99.05,133.57h2.24v4.48h-2.24c-1.24,0-2.24-1-2.24-2.24s1-2.24,2.24-2.24h0Z"/>
    <rect class="st1" x="101.28" y="133.57" width="4.48" height="4.48"/>
    <rect class="st1" x="105.76" y="133.57" width="4.48" height="4.48"/>
    <path class="st1" d="M114.72,133.57h-4.48v4.48c2.47,0,4.48-2,4.48-4.48Z"/>
    <path class="st1" d="M123.67,135.8v2.24h-4.48v-2.24c0-1.24,1-2.24,2.24-2.24s2.24,1,2.24,2.24Z"/>
    <rect class="st1" x="141.58" y="133.57" width="4.48" height="4.48"/>
    <rect class="st1" x="159.48" y="133.57" width="4.48" height="4.48"/>
    <path class="st1" d="M177.39,138.04v-4.48h-4.48c0,2.47,2,4.48,4.48,4.48Z"/>
    <rect class="st1" x="177.39" y="133.57" width="4.48" height="4.48"/>
    <rect class="st1" x="69.95" y="138.04" width="4.48" height="4.48"/>
    <rect class="st1" x="78.9" y="138.04" width="4.48" height="4.48"/>
    <rect class="st1" x="87.85" y="138.04" width="4.48" height="4.48"/>
    <rect class="st1" x="101.28" y="138.04" width="4.48" height="4.48"/>
    <path class="st1" d="M110.24,138.04h-4.48v4.48c2.47,0,4.48-2,4.48-4.48Z"/>
    <path class="st1" d="M116.95,138.04h2.24v4.48h-2.24c-1.24,0-2.24-1-2.24-2.24s1-2.24,2.24-2.24h0Z"/>
    <rect class="st1" x="119.19" y="138.04" width="4.48" height="4.48"/>
    <path class="st1" d="M130.38,138.04h2.24v4.48h-2.24c-1.24,0-2.24-1-2.24-2.24s1-2.24,2.24-2.24h0Z"/>
    <path class="st1" d="M132.62,138.04v4.48h4.48c0-2.47-2-4.48-4.48-4.48Z"/>
    <rect class="st1" x="141.58" y="138.04" width="4.48" height="4.48"/>
    <path class="st1" d="M152.77,138.04c1.24,0,2.24,1,2.24,2.24s-1,2.24-2.24,2.24-2.24-1-2.24-2.24,1-2.24,2.24-2.24Z"/>
    <rect class="st1" x="159.48" y="138.04" width="4.48" height="4.48"/>
    <path class="st1" d="M170.68,138.04c1.24,0,2.24,1,2.24,2.24s-1,2.24-2.24,2.24-2.24-1-2.24-2.24,1-2.24,2.24-2.24Z"/>
    <rect class="st1" x="177.39" y="138.04" width="4.48" height="4.48"/>
    <path class="st1" d="M74.42,147v-4.48h-4.48c0,2.47,2,4.48,4.48,4.48Z"/>
    <rect class="st1" x="74.42" y="142.52" width="4.48" height="4.48"/>
    <path class="st1" d="M83.38,142.52h-4.48v4.48c2.47,0,4.48-2,4.48-4.48Z"/>
    <path class="st1" d="M92.33,147v-4.48h-4.48c0,2.47,2,4.48,4.48,4.48Z"/>
    <path class="st1" d="M94.57,147h-2.24v-4.48h2.24c1.24,0,2.24,1,2.24,2.24s-1,2.24-2.24,2.24h0Z"/>
    <rect class="st1" x="101.28" y="142.52" width="4.48" height="4.48"/>
    <path class="st1" d="M112.48,142.52c1.24,0,2.24,1,2.24,2.24s-1,2.24-2.24,2.24-2.24-1-2.24-2.24,1-2.24,2.24-2.24Z"/>
    <rect class="st1" x="119.19" y="142.52" width="4.48" height="4.48"/>
    <rect class="st1" x="132.62" y="142.52" width="4.48" height="4.48"/>
    <rect class="st1" x="137.1" y="142.52" width="4.48" height="4.48"/>
    <rect class="st1" x="141.58" y="142.52" width="4.48" height="4.48"/>
    <rect class="st1" x="159.48" y="142.52" width="4.48" height="4.48"/>
    <path class="st1" d="M166.2,147h-2.24v-4.48h2.24c1.24,0,2.24,1,2.24,2.24s-1,2.24-2.24,2.24h0Z"/>
    <path class="st1" d="M175.15,142.52h2.24v4.48h-2.24c-1.24,0-2.24-1-2.24-2.24s1-2.24,2.24-2.24h0Z"/>
    <path class="st1" d="M181.87,142.52h-4.48v4.48c2.47,0,4.48-2,4.48-4.48Z"/>
    <path class="st1" d="M74.42,149.23v-2.24h4.48v2.24c0,1.24-1,2.24-2.24,2.24s-2.24-1-2.24-2.24Z"/>
    <path class="st1" d="M85.62,147c1.24,0,2.24,1,2.24,2.24s-1,2.24-2.24,2.24-2.24-1-2.24-2.24,1-2.24,2.24-2.24Z"/>
    <path class="st1" d="M105.76,151.47v-4.48h-4.48c0,2.47,2,4.48,4.48,4.48Z"/>
    <path class="st1" d="M108,151.47h-2.24v-4.48h2.24c1.24,0,2.24,1,2.24,2.24s-1,2.24-2.24,2.24h0Z"/>
    <path class="st1" d="M116.95,147h2.24v4.48h-2.24c-1.24,0-2.24-1-2.24-2.24s1-2.24,2.24-2.24h0Z"/>
    <rect class="st1" x="119.19" y="147" width="4.48" height="4.48"/>
    <rect class="st1" x="123.67" y="147" width="4.48" height="4.48"/>
    <rect class="st1" x="128.15" y="147" width="4.48" height="4.48"/>
    <rect class="st1" x="132.62" y="147" width="4.48" height="4.48"/>
    <rect class="st1" x="137.1" y="147" width="4.48" height="4.48"/>
    <rect class="st1" x="141.58" y="147" width="4.48" height="4.48"/>
    <rect class="st1" x="146.05" y="147" width="4.48" height="4.48"/>
    <rect class="st1" x="150.53" y="147" width="4.48" height="4.48"/>
    <rect class="st1" x="155.01" y="147" width="4.48" height="4.48"/>
    <rect class="st1" x="159.48" y="147" width="4.48" height="4.48"/>
    <path class="st1" d="M90.09,151.47c1.24,0,2.24,1,2.24,2.24s-1,2.24-2.24,2.24-2.24-1-2.24-2.24,1-2.24,2.24-2.24Z"/>
    <path class="st1" d="M114.72,153.71v2.24h-4.48v-2.24c0-1.24,1-2.24,2.24-2.24s2.24,1,2.24,2.24Z"/>
    <rect class="st1" x="123.67" y="151.47" width="4.48" height="4.48"/>
    <rect class="st1" x="128.15" y="151.47" width="4.48" height="4.48"/>
    <path class="st1" d="M137.1,151.47h-4.48v4.48c2.47,0,4.48-2,4.48-4.48Z"/>
    <path class="st1" d="M146.05,155.95v-4.48h-4.48c0,2.47,2,4.48,4.48,4.48Z"/>
    <path class="st1" d="M150.53,151.47h-4.48v4.48c2.47,0,4.48-2,4.48-4.48Z"/>
    <path class="st1" d="M159.48,155.95v-4.48h-4.48c0,2.47,2,4.48,4.48,4.48Z"/>
    <rect class="st1" x="159.48" y="151.47" width="4.48" height="4.48"/>
    <path class="st1" d="M177.39,153.71v2.24h-4.48v-2.24c0-1.24,1-2.24,2.24-2.24s2.24,1,2.24,2.24Z"/>
    <path class="st1" d="M72.19,155.95c1.24,0,2.24,1,2.24,2.24s-1,2.24-2.24,2.24-2.24-1-2.24-2.24,1-2.24,2.24-2.24Z"/>
    <path class="st1" d="M83.38,158.19v2.24h-4.48v-2.24c0-1.24,1-2.24,2.24-2.24s2.24,1,2.24,2.24Z"/>
    <path class="st1" d="M92.33,160.43h4.48v-4.48c-2.47,0-4.48,2-4.48,4.48Z"/>
    <path class="st1" d="M96.81,155.95v4.48h4.48c0-2.47-2-4.48-4.48-4.48Z"/>
    <path class="st1" d="M105.76,160.43h4.48v-4.48c-2.47,0-4.48,2-4.48,4.48Z"/>
    <rect class="st1" x="110.24" y="155.95" width="4.48" height="4.48"/>
    <rect class="st1" x="114.72" y="155.95" width="4.48" height="4.48"/>
    <rect class="st1" x="119.19" y="155.95" width="4.48" height="4.48"/>
    <rect class="st1" x="123.67" y="155.95" width="4.48" height="4.48"/>
    <path class="st1" d="M159.48,158.19v-2.24h4.48v2.24c0,1.24-1,2.24-2.24,2.24s-2.24-1-2.24-2.24h0Z"/>
    <path class="st1" d="M170.68,155.95h2.24v4.48h-2.24c-1.24,0-2.24-1-2.24-2.24s1-2.24,2.24-2.24h0Z"/>
    <rect class="st1" x="172.91" y="155.95" width="4.48" height="4.48"/>
    <path class="st1" d="M179.63,160.43h-2.24v-4.48h2.24c1.24,0,2.24,1,2.24,2.24s-1,2.24-2.24,2.24h0Z"/>
    <path class="st1" d="M83.38,164.9v-4.48h-4.48c0,2.47,2,4.48,4.48,4.48Z"/>
    <path class="st1" d="M83.38,160.43v4.48h4.48c0-2.47-2-4.48-4.48-4.48Z"/>
    <path class="st1" d="M96.81,164.9v-4.48h-4.48c0,2.47,2,4.48,4.48,4.48Z"/>
    <rect class="st1" x="96.81" y="160.43" width="4.48" height="4.48"/>
    <rect class="st1" x="101.28" y="160.43" width="4.48" height="4.48"/>
    <rect class="st1" x="105.76" y="160.43" width="4.48" height="4.48"/>
    <rect class="st1" x="110.24" y="160.43" width="4.48" height="4.48"/>
    <path class="st1" d="M119.19,160.43h-4.48v4.48c2.47,0,4.48-2,4.48-4.48Z"/>
    <rect class="st1" x="123.67" y="160.43" width="4.48" height="4.48"/>
    <path class="st1" d="M128.15,160.43v4.48h4.48c0-2.47-2-4.48-4.48-4.48Z"/>
    <path class="st1" d="M146.05,162.66v2.24h-4.48v-2.24c0-1.24,1-2.24,2.24-2.24s2.24,1,2.24,2.24Z"/>
    <path class="st1" d="M76.66,164.9c1.24,0,2.24,1,2.24,2.24s-1,2.24-2.24,2.24-2.24-1-2.24-2.24,1-2.24,2.24-2.24Z"/>
    <path class="st1" d="M87.85,169.38v-4.48h-4.48c0,2.47,2,4.48,4.48,4.48Z"/>
    <path class="st1" d="M90.09,169.38h-2.24v-4.48h2.24c1.24,0,2.24,1,2.24,2.24s-1,2.24-2.24,2.24h0Z"/>
    <path class="st1" d="M101.28,169.38v-4.48h-4.48c0,2.47,2,4.48,4.48,4.48Z"/>
    <rect class="st1" x="101.28" y="164.9" width="4.48" height="4.48"/>
    <rect class="st1" x="105.76" y="164.9" width="4.48" height="4.48"/>
    <path class="st1" d="M114.72,164.9h-4.48v4.48c2.47,0,4.48-2,4.48-4.48Z"/>
    <path class="st1" d="M128.15,169.38v-4.48h-4.48c0,2.47,2,4.48,4.48,4.48Z"/>
    <path class="st1" d="M132.62,164.9h-4.48v4.48c2.47,0,4.48-2,4.48-4.48Z"/>
    <path class="st1" d="M146.05,169.38v-4.48h-4.48c0,2.47,2,4.48,4.48,4.48Z"/>
    <path class="st1" d="M148.29,169.38h-2.24v-4.48h2.24c1.24,0,2.24,1,2.24,2.24s-1,2.24-2.24,2.24h0Z"/>
    <path class="st1" d="M161.72,164.9c1.24,0,2.24,1,2.24,2.24s-1,2.24-2.24,2.24-2.24-1-2.24-2.24,1-2.24,2.24-2.24Z"/>
    <path class="st1" d="M170.68,164.9c1.24,0,2.24,1,2.24,2.24s-1,2.24-2.24,2.24-2.24-1-2.24-2.24,1-2.24,2.24-2.24Z"/>
    <path class="st1" d="M179.63,164.9c1.24,0,2.24,1,2.24,2.24s-1,2.24-2.24,2.24-2.24-1-2.24-2.24,1-2.24,2.24-2.24Z"/>
    <g>
      <path class="st0" d="M54.77,26.35h-9.94c-1.28,0-2.47.39-3.44,1.06-.76.52-1.39,1.21-1.83,2.01-.46.83-.73,1.79-.73,2.8v10.18c0,3.24,2.69,5.88,6,5.88h9.94c3.31,0,6-2.64,6-5.88v-10.18c0-3.24-2.69-5.88-6-5.88h0Z"/>
      <path class="st1" d="M54.77,21.65h-9.94c-4.84,0-8.95,3.2-10.26,7.57-.14.45-.24.92-.32,1.39-.08.52-.12,1.06-.12,1.61v10.18c0,5.83,4.8,10.58,10.7,10.58h9.94c5.9,0,10.7-4.74,10.7-10.58v-10.18c0-5.83-4.8-10.58-10.7-10.58h0ZM60.77,42.4c0,3.24-2.69,5.88-6,5.88h-9.94c-3.31,0-6-2.64-6-5.88v-10.18c0-1.01.26-1.97.72-2.8.44-.8,1.07-1.49,1.83-2.01.97-.67,2.16-1.06,3.44-1.06h9.94c3.31,0,6,2.64,6,5.88v10.18h.01Z"/>
    </g>
    <g>
      <path class="st0" d="M171.17,26.35h-9.94c-1.28,0-2.47.39-3.44,1.06-.76.52-1.39,1.21-1.83,2.01-.46.83-.73,1.79-.73,2.8v10.18c0,3.24,2.69,5.88,6,5.88h9.94c3.31,0,6-2.64,6-5.88v-10.18c0-3.24-2.69-5.88-6-5.88h0Z"/>
      <path class="st1" d="M171.17,21.65h-9.94c-4.84,0-8.95,3.2-10.26,7.57-.14.45-.24.92-.32,1.39-.08.52-.12,1.06-.12,1.61v10.18c0,5.83,4.8,10.58,10.7,10.58h9.94c5.9,0,10.7-4.74,10.7-10.58v-10.18c0-5.83-4.8-10.58-10.7-10.58h0ZM177.17,42.4c0,3.24-2.69,5.88-6,5.88h-9.94c-3.31,0-6-2.64-6-5.88v-10.18c0-1.01.26-1.97.72-2.8.44-.8,1.07-1.49,1.83-2.01.97-.67,2.16-1.06,3.44-1.06h9.94c3.31,0,6,2.64,6,5.88v10.18h0Z"/>
    </g>
    <g>
      <path class="st0" d="M54.77,142.75h-9.94c-1.28,0-2.47.39-3.44,1.06-.76.52-1.39,1.21-1.83,2.01-.46.83-.73,1.79-.73,2.8v10.18c0,3.24,2.69,5.88,6,5.88h9.94c3.31,0,6-2.64,6-5.88v-10.18c0-3.24-2.69-5.88-6-5.88h0Z"/>
      <path class="st1" d="M54.77,138.04h-9.94c-4.84,0-8.95,3.2-10.26,7.57-.14.45-.24.92-.32,1.39-.08.52-.12,1.06-.12,1.61v10.18c0,5.83,4.8,10.58,10.7,10.58h9.94c5.9,0,10.7-4.74,10.7-10.58v-10.18c0-5.83-4.8-10.58-10.7-10.58h0ZM60.77,158.8c0,3.24-2.69,5.88-6,5.88h-9.94c-3.31,0-6-2.64-6-5.88v-10.18c0-1.01.26-1.97.72-2.8.44-.8,1.07-1.49,1.83-2.01.97-.67,2.16-1.06,3.44-1.06h9.94c3.31,0,6,2.64,6,5.88v10.18h.01Z"/>
    </g>
    <path class="st1" d="M46.76,44.03c-2.03,0-3.68-1.62-3.68-3.6v-6.23c0-.62.16-1.2.44-1.71.27-.49.66-.91,1.12-1.23.6-.41,1.32-.65,2.11-.65h6.09c2.02,0,3.67,1.61,3.67,3.6v6.23c0,1.98-1.65,3.6-3.67,3.6h-6.09.01Z"/>
    <path class="st1" d="M163.16,44.03c-2.03,0-3.68-1.62-3.68-3.6v-6.23c0-.62.16-1.2.44-1.71.27-.49.66-.91,1.12-1.23.6-.41,1.32-.65,2.11-.65h6.09c2.02,0,3.67,1.61,3.67,3.6v6.23c0,1.98-1.65,3.6-3.67,3.6h-6.09,0Z"/>
    <path class="st1" d="M46.76,160.43c-2.03,0-3.68-1.62-3.68-3.6v-6.23c0-.62.16-1.2.44-1.71.27-.49.66-.91,1.12-1.23.6-.41,1.32-.65,2.11-.65h6.09c2.02,0,3.67,1.61,3.67,3.6v6.23c0,1.98-1.65,3.6-3.67,3.6h-6.09.01Z"/>
    <rect class="st1" x="85.15" y="72.56" width="45.71" height="45.71" rx="5.61" ry="5.61"/>
    <g>
      <path class="st7" d="M93.61,107.95c0,.65-.3,1.19-1.2,1.19h-2.05c-.19,0-.25-.06-.25-.25v-6.29c0-.19.06-.25.25-.25h2.01c.89,0,1.19.53,1.19,1.19v1c0,.44-.19,1.01-.79,1.14v.02c.61.11.84.58.84,1.04v1.22h0ZM91.34,103.37v1.79h.47c.33,0,.53-.23.53-.58v-.86c0-.19-.15-.35-.32-.35h-.68ZM92.34,107.76v-.98c0-.35-.2-.58-.53-.58h-.47v1.91h.68c.17,0,.32-.16.32-.35h0Z"/>
      <path class="st7" d="M95.67,102.35c.19,0,.25.06.25.25v6.29c0,.19-.06.25-.25.25h-.73c-.19,0-.25-.06-.25-.25v-6.29c0-.19.06-.25.25-.25h.73Z"/>
      <path class="st7" d="M98.36,106.11h0v2.78c0,.19-.06.25-.25.25h-.73c-.19,0-.25-.06-.25-.25v-6.29c0-.19.06-.25.25-.25h.73c.19,0,.25.06.25.25v2.57h0l1.13-2.59c.08-.18.14-.23.34-.23h.77c.18,0,.22.06.14.23l-1.32,2.96,1.59,3.37c.08.17.04.23-.14.23h-.9c-.2,0-.27-.05-.35-.23l-1.26-2.8h0Z"/>
      <path class="st7" d="M104.72,108.89c0,.19-.06.25-.25.25h-2.52c-.19,0-.25-.06-.25-.25v-6.29c0-.19.06-.25.25-.25h2.42c.19,0,.25.06.25.25v.55c0,.19-.06.25-.25.25h-1.44v1.77h.93c.19,0,.25.06.25.25v.59c0,.19-.06.25-.25.25h-.93v1.84h1.55c.19,0,.25.06.25.25v.55h-.01Z"/>
      <path class="st7" d="M107.02,108.01v-4.53c0-.63.28-1.13,1.11-1.13h1.27c.83,0,1.1.5,1.1,1.13v.7c0,.2-.05.26-.24.29l-.7.14c-.18.04-.24,0-.24-.2v-1.03h-1.09v4.7h1.09v-1.2c0-.19.06-.24.25-.2l.68.13c.2.04.25.1.25.29v.88c0,.63-.28,1.13-1.1,1.13h-1.27c-.84,0-1.11-.5-1.11-1.13h0v.03Z"/>
      <path class="st7" d="M112.74,105.17h1.26v-2.57c0-.19.06-.25.25-.25h.72c.19,0,.25.06.25.25v6.29c0,.19-.06.25-.25.25h-.72c-.19,0-.25-.06-.25-.25v-2.69h-1.26v2.69c0,.19-.06.25-.25.25h-.73c-.19,0-.25-.06-.25-.25v-6.29c0-.19.06-.25.25-.25h.73c.19,0,.25.06.25.25v2.57Z"/>
      <path class="st7" d="M118.98,109.13c-.2,0-.26-.05-.29-.25l-.21-1.13h-1.16l-.21,1.13c-.04.2-.1.25-.29.25h-.68c-.19,0-.24-.06-.19-.24l1.37-6.31c.05-.19.1-.24.3-.24h.65c.2,0,.26.05.3.24l1.4,6.31c.05.18,0,.24-.19.24h-.8ZM118.04,105.29l-.13-.82h0l-.13.82-.25,1.43h.77l-.25-1.43h-.01Z"/>
      <path class="st7" d="M120.21,103.39c-.19,0-.25-.06-.25-.25v-.55c0-.19.06-.25.25-.25h2.63c.19,0,.25.06.25.25v.55c0,.19-.06.25-.25.25h-.71v5.5c0,.19-.06.25-.25.25h-.72c-.19,0-.25-.06-.25-.25v-5.5h-.7Z"/>
      <path class="st7" d="M123.58,103.39c-.19,0-.25-.06-.25-.25v-.55c0-.19.06-.25.25-.25h2.63c.19,0,.25.06.25.25v.55c0,.19-.06.25-.25.25h-.71v5.5c0,.19-.06.25-.25.25h-.72c-.19,0-.25-.06-.25-.25v-5.5h-.7Z"/>
    </g>
    <g>
      <path class="st3" d="M113.62,90.67c0,.79-1.13.98-1.39.24-.89-3.3-4.86-4.07-6.5-3.27l1.62,3.03c2.29-.04,2.35,3.37.06,3.41-1.38.04-2.21-1.68-1.36-2.73-1.36-2.51-3.8-7.08-5.17-9.63-.21-.4-.2-.87.04-1.25.23-.38.64-.61,1.09-.61h6.6c2.12-.07,3.05,2.64,1.82,4.15-.51.69-1.39.88-2.22.82-.98,0-.99-1.44-.02-1.46h.51c.55.05.85-.62.82-1,0-.76-.47-1.03-.91-1.03h-5.79c-.22,0-.36.23-.25.42l2.49,4.63c3.61-1.44,7.67.68,8.56,4.3h0v-.02Z"/>
      <path class="st3" d="M113.62,94.07c0,.06,0,.11-.02.16h0c-.77,2.67-3.39,4.63-6.18,4.59-5.79.2-8.68-7.62-4.3-11.26l.7,1.3c-4.23,4.39,1.66,11.16,6.6,7.53.86-.64,1.5-1.56,1.81-2.58.04-.1.1-.19.18-.27.43-.43,1.23-.09,1.2.52h.01Z"/>
    </g>
  </g>
</svg>