<?xml version="1.0" encoding="UTF-8"?>
<svg id="Layer_1" data-name="Layer 1" xmlns="http://www.w3.org/2000/svg" viewBox="0 0 1000 1000">
  <defs>
    <style>
      .cls-1 {
        fill: #1a434e;
      }
    </style>
  </defs>
  <circle class="cls-1" cx="511.22" cy="640.03" r="78.72"/>
  <path class="cls-1" d="M797,561.67c0,17.53-13.72,31.95-31.05,32.85h-3.56s0,.01-.01.01c-13.38-.69-24.88-9.27-29.33-21.88l-.04-.16c-.24-.78-.47-1.59-.74-2.27-14.47-45.98-43.87-87.26-82.73-116.21-40.21-29.94-88.04-45.77-138.33-45.77-14.1,0-27.91,1.26-41.33,3.7-12.57,2.27-24.78,5.55-36.56,9.78l104.08,194.02c8.88,16.35,2.79,36.9-13.56,45.78-4.92,2.69-10.49,4.1-16.07,4.1-12.38,0-23.79-6.74-29.7-17.63l-104.38-194.41-31.36-58.38-132.5-246.8-.16-.28c-9.55-18.32-8.84-39.8,1.87-57.47,10.71-17.67,29.45-28.21,50.11-28.21h304.22c33.48,0,62.94,13.43,82.98,37.79,17.02,20.75,26.38,48.24,26.38,77.35s-8.98,55.59-25.35,76.12c-19.37,24.32-47.7,37.72-79.75,37.72h-22.5c-19.94,0-36.05-16.34-34.62-36.22,1.25-17.5,15.87-31.33,33.65-31.33h23.47c15.32,0,26.68-7.72,32.86-22.33,4.49-10.66,4.75-21.82,4.75-23.96,0-35.13-21.64-47.64-41.87-47.64h-266.94c-10.05,0-16.44,10.76-11.65,19.58l114.68,213.76c11.53-4.56,23.42-8.43,35.61-11.55,23.55-6.02,48.23-9.22,73.64-9.22,64.5,0,125.87,20.28,177.47,58.66,49.85,37.13,87.6,90.04,106.25,149.01l.23.69h.01c.28.94.57,1.84.82,2.66.65,2.66,1.01,5.4,1.01,8.13Z"/>
  <path class="cls-1" d="M797.02,718.45c0,2.58-.3,5.16-.84,7.47h0c-.47,1.49-.92,2.98-1.42,4.49-19,59.67-55.75,111.08-106.3,148.62-51.54,38.32-112.82,58.55-177.24,58.55-164.06,0-297.54-133.47-297.54-297.54,0-87.98,38.39-167.16,99.29-221.68l32.27,60.1c-40.7,41.77-65.79,98.81-65.79,161.58,0,127.8,103.99,231.78,231.78,231.78,50.42,0,98.37-15.93,138.65-46.02,38.94-29.09,68.3-70.54,82.64-116.63.13-.38.25-.78.37-1.16l.11-.33c.06-.2.14-.41.28-.74l.17-.45c.16-.41.33-.85.52-1.29.41-.95.88-1.9,1.45-2.89.21-.43.48-.81.74-1.26l.21-.33c1.18-1.83,2.48-3.49,3.91-5,.38-.4.75-.78,1.16-1.15.41-.4.82-.76,1.26-1.13,3.03-2.58,6.45-4.59,10.16-5.94,1.64-.58,3.33-1.06,5.07-1.39.38-.09.78-.14,1.19-.21,1.3-.2,2.59-.3,3.74-.35h2.37c17.84.6,31.78,15.06,31.78,32.92Z"/>
</svg>